<svg xmlns="http://www.w3.org/2000/svg" width="80" height="80" viewBox="0 0 60 60">
  <path d="M42.5 10a2.502 2.502 0 00-2.5 2.5v1.563L9.5 23.59a2.457 2.457 0 00-2-1.09A2.502 2.502 0 005 25v12.5C5 38.879 6.121 40 7.5 40a2.47 2.47 0 002.172-1.332l1.61.402a8.72 8.72 0 0016.27 4.066l12.448 3.114v1.25c0 1.379 1.121 2.5 2.5 2.5s2.5-1.121 2.5-2.5v-35c0-1.379-1.121-2.5-2.5-2.5zM20 45a6.271 6.271 0 01-6.168-5.293l11.113 2.777A6.207 6.207 0 0120 45zM10 33.594v-4.918L40 19.3v21.793zm0 0M50 26.145c.242 0 .48-.07.684-.204l7.5-4.894a1.25 1.25 0 10-1.368-2.094l-7.5 4.895A1.25 1.25 0 0050 26.145zm0 0M58.184 38.848l-7.5-4.895a1.25 1.25 0 10-1.367 2.094l7.5 4.894a1.25 1.25 0 101.367-2.093zm0 0"/>
</svg>
