<svg xmlns="http://www.w3.org/2000/svg" width="80" height="80" viewBox="0 0 60 60"><path d="M54.375 51.563c-11.89 0-21.563-9.672-21.563-21.563V12.414l7.387 7.387a2.813 2.813 0 003.977-3.977L31.988 3.637a2.813 2.813 0 00-3.976 0L15.824 15.824a2.813 2.813 0 003.977 3.977l7.387-7.387V30c0 11.89-9.672 21.563-21.563 21.563a2.81 2.81 0 00-2.813 2.812 2.81 2.81 0 002.813 2.813 26.997 26.997 0 0019.223-7.965A27.085 27.085 0 0030 42.07a27.256 27.256 0 0024.375 15.117 2.81 2.81 0 002.813-2.812 2.81 2.81 0 00-2.813-2.813zm0 0"/></svg>