<svg xmlns="http://www.w3.org/2000/svg" width="80" height="59pt" viewBox="0 0 60 59"><path d="M45.469 15.66V1.016C45.469.453 45.008 0 44.44 0H15.54c-.57 0-1.031.453-1.031 1.016V16.03c0 .13.031.254.074.367V58.04c0 .559.465 1.016 1.035 1.016h28.895c.57 0 1.035-.457 1.035-1.016V16.031a.97.97 0 0 0-.078-.37zM16.574 2.031h26.832v3.45H16.574zm0 5.477h26.832v7.508H16.574zM43.48 57.023H16.648V43.125H43.48zM17.266 39.695l.504-7.797h2.386l.778 2.606c.246.902.492 1.875.668 2.785h.035c.226-.902.496-1.93.754-2.797l.847-2.59h2.34l.438 7.793h-1.754l-.117-2.984c-.04-.938-.07-2.07-.07-3.203h-.036a41.628 41.628 0 0 1-.883 3.02l-.965 3.038h-1.398l-.848-3.02a35.416 35.416 0 0 1-.718-3.038h-.024c-.043 1.05-.082 2.254-.14 3.226l-.141 2.961zm10.12 0v-7.797h1.802v7.797zm8.305-1.48v1.48h-4.953v-7.797h1.801v6.317zm2.868-2.867c.175-.305.363-.582.543-.856l1.796-2.594h2.2l-2.621 3.325 2.761 4.472h-2.093l-1.938-3.367-.684.82v2.547h-1.777v-7.797h1.777v3.45zm4.921-6.602H16.648V17.043H43.48zm0 0"/></svg>