<svg xmlns="http://www.w3.org/2000/svg" xmlns:xlink="http://www.w3.org/1999/xlink" width="80" height="80" viewBox="0 0 60 60">
  <defs>
    <clipPath id="b">
      <path d="M0 0h60v60H0z"/>
    </clipPath>
    <clipPath id="c">
      <path d="M0 0h60v60H0z"/>
    </clipPath>
    <clipPath id="d">
      <path d="M0 0h60v60H0z"/>
    </clipPath>
    <clipPath id="e">
      <path d="M0 0h60v60H0z"/>
    </clipPath>
    <clipPath id="f">
      <path d="M0 0h60v60H0z"/>
    </clipPath>
    <clipPath id="g">
      <path d="M0 0h60v60H0z"/>
    </clipPath>
    <mask id="i">
      <g filter="url(#a)">
        <path fill-opacity=".102" d="M0 0h60v60H0z"/>
      </g>
    </mask>
    <mask id="k">
      <g filter="url(#a)">
        <path fill-opacity=".102" d="M0 0h60v60H0z"/>
      </g>
    </mask>
    <mask id="m">
      <g filter="url(#a)">
        <path fill-opacity=".102" d="M0 0h60v60H0z"/>
      </g>
    </mask>
    <mask id="o">
      <g filter="url(#a)">
        <path fill-opacity=".051" d="M0 0h60v60H0z"/>
      </g>
    </mask>
    <mask id="q">
      <g filter="url(#a)">
        <path fill-opacity=".102" d="M0 0h60v60H0z"/>
      </g>
    </mask>
    <mask id="s">
      <g filter="url(#a)">
        <path fill-opacity=".051" d="M0 0h60v60H0z"/>
      </g>
    </mask>
    <g id="h" clip-path="url(#b)">
      <path d="M14.988 42.773c-.16 2.586-.02 5.196 1.36 7.489 3.886.832 7.933 1.23 11.71 1.601l-9.847-10.62c-.895.628-1.984 1.152-3.223 1.53zm0 0"/>
    </g>
    <g id="j" clip-path="url(#c)">
      <path d="M34.914 46.637a2.673 2.673 0 00-2.55 4.695c.624.543 1.878 2.836 1.878 4.262 0 .144.016.285.04.422 2.07-.196 3.804-.688 5.226-1.485-.418-3.101-2.524-6.832-4.594-7.894zm0 0"/>
    </g>
    <g id="l" clip-path="url(#d)">
      <path d="M25.766 47.004a2.67 2.67 0 00-3.77.246 2.676 2.676 0 00.246 3.773c.469.41.926 2.34.254 3.72 1.512.495 3.266.859 5.293 1.1 1.008-3.292.027-7.042-2.023-8.84zm0 0"/>
    </g>
    <g id="n" clip-path="url(#e)">
      <path d="M28.703 31.313c-5.7.445-10.379 4.59-10.918 10.07-.562 5.746-.258 10.094 8.758 11.586-4.54-5.61-2.527-16.074 2.16-21.657zm0 0"/>
    </g>
    <g id="p" clip-path="url(#f)">
      <path d="M23.727 29.277a.82.82 0 01-.82.82.821.821 0 110-1.644c.452 0 .82.367.82.824zm0 0M29.422 31.098a.82.82 0 01-.82.82.821.821 0 110-1.645c.453 0 .82.368.82.825zm0 0M25.82 33.559a.824.824 0 01-1.648 0 .824.824 0 011.648 0zm0 0"/>
    </g>
    <g id="r" clip-path="url(#g)">
      <path d="M27.625 9.887c-5.414.68-9.832 5.027-10.39 10.687l-.536 5.469c-.578 5.895 3.73 11.14 9.625 11.723l6.477.632c-8.895-6.414-9.012-21.656-5.176-28.511zm0 0"/>
    </g>
    <filter id="a" filterUnits="objectBoundingBox" x="0%" y="0%" width="100%" height="100%">
      <feColorMatrix in="SourceGraphic" values="0 0 0 0 1 0 0 0 0 1 0 0 0 0 1 0 0 0 1 0"/>
    </filter>
  </defs>
  <path d="M9.762 5.73a.88.88 0 01-.88-.878V1.375a.88.88 0 01.88-.879.88.88 0 01.879.879v3.477a.88.88 0 01-.88.878zm0 0" fill="#495059"/>
  <path d="M19.523 14.613c0 5.39-4.37 9.762-9.761 9.762-5.39 0-9.762-4.371-9.762-9.762 0-5.39 4.371-9.761 9.762-9.761 5.39 0 9.761 4.37 9.761 9.761zm0 0" fill="#e5e5e5"/>
  <path d="M9.762 4.852A9.759 9.759 0 00.75 10.859h5.777a15.133 15.133 0 013.235-6.007zm0 0" fill="#ff85b6"/>
  <path d="M18.773 10.86a9.759 9.759 0 00-9.011-6.008 15.133 15.133 0 013.234 6.007zm0 0" fill="#80b0e3"/>
  <path d="M6.008 14.613c0 1.094.144 2.383.52 3.754h6.468c.375-1.37.52-2.66.52-3.754a14.36 14.36 0 00-.52-3.754H6.527a14.36 14.36 0 00-.52 3.754zm0 0" fill="#fff"/>
  <path d="M6.008 14.613c0-1.093.144-2.383.52-3.754H.75A9.682 9.682 0 000 14.613c0 1.328.266 2.598.75 3.754h5.777a14.36 14.36 0 01-.52-3.754zm0 0" fill="#5cb38e"/>
  <path d="M.75 18.367a9.759 9.759 0 009.012 6.008 15.158 15.158 0 01-3.235-6.008zm0 0" fill="#8783d2"/>
  <path d="M18.773 10.86h-5.777c.375 1.37.52 2.66.52 3.753a14.36 14.36 0 01-.52 3.754h5.777a9.697 9.697 0 00.75-3.754 9.682 9.682 0 00-.75-3.754zm0 0" fill="#a3e3ff"/>
  <path d="M6.527 18.367a15.158 15.158 0 003.235 6.008 15.158 15.158 0 003.234-6.008zm0 0" fill="#fae17c"/>
  <path d="M40.758 47.848c-.758 0-1.453-.5-1.668-1.266a1.737 1.737 0 011.195-2.145l.055-.011c.441-.125 1.613-.457 2.594-1.258a1.733 1.733 0 012.441.25c.61.742.496 1.836-.246 2.441-1.54 1.258-3.277 1.746-3.848 1.91l-.047.012c-.16.043-.32.067-.476.067zm0 0" fill="#498a68"/>
  <path d="M28.059 51.863c-8.067-.793-17.348-1.703-23.715-6.71-1.09-.856-.242-2.583 1.11-2.266 5.308 1.246 9.964.32 12.757-1.645zm0 0" fill="#5cb38e"/>
  <use xlink:href="#h" mask="url(#i)"/>
  <path d="M24.328 59.504a2.67 2.67 0 01-2.11-4.309c1.055-1.363.548-3.715.024-4.172a2.676 2.676 0 01-.246-3.773 2.67 2.67 0 013.77-.246c2.632 2.305 3.5 7.816.675 11.465a2.663 2.663 0 01-2.113 1.035zm0 0M36.914 58.266a2.67 2.67 0 01-2.672-2.672c0-1.426-1.254-3.719-1.879-4.262a2.673 2.673 0 012.551-4.695c2.313 1.187 4.672 5.707 4.672 8.96a2.67 2.67 0 01-2.672 2.669zm-4.441-6.875zm0 0" fill="#498a68"/>
  <use xlink:href="#j" mask="url(#k)"/>
  <use xlink:href="#l" mask="url(#m)"/>
  <path d="M42.066 43.766c-.609 6.207-1.894 10.617-13.191 9.507-11.297-1.109-11.7-5.683-11.09-11.89.61-6.207 6.54-10.707 13.246-10.047 6.703.656 11.645 6.223 11.035 12.43zm0 0" fill="#5cb38e"/>
  <path d="M42.066 43.766l.012-.149c-2.465-.894-7.46-1.578-11.316 1.79-2.809 2.452-3.465 5.331-3.418 7.687.488.066.996.129 1.531.18 11.297 1.109 12.582-3.301 13.191-9.508zm0 0" fill="#9bdfc1"/>
  <use xlink:href="#n" mask="url(#o)"/>
  <path d="M43.762 16.242a11.24 11.24 0 00-8.844-5.937l-4.621-.457c-6.57-.645-12.414 4.16-13.063 10.726l-.535 5.469c-.578 5.895 3.73 11.14 9.625 11.723l24.488 2.402a8.032 8.032 0 008.782-7.211l.367-3.719a8.032 8.032 0 00-7.211-8.781l-3.172-.312a7.4 7.4 0 01-5.816-3.903zm0 0" fill="#5cb38e"/>
  <use xlink:href="#p" mask="url(#q)"/>
  <path d="M25.352 17.145c-1.141-.11-2.11.273-2.168.855-.055.586.82 1.148 1.96 1.262 1.141.11 2.11-.274 2.169-.856.054-.586-.82-1.148-1.961-1.261zm0 0M38.992 20.625c1.14.11 2.11-.273 2.168-.855.059-.586-.82-1.149-1.96-1.262-1.138-.113-2.11.27-2.165.855-.058.586.82 1.149 1.957 1.262zm0 0" fill="#ffa8cb"/>
  <path d="M29.813 17.414c-.028 0-.055-.004-.086-.004a.883.883 0 01-.79-.96.872.872 0 00-1.734-.173.878.878 0 01-.96.79.878.878 0 01-.79-.962c.07-.699.406-1.328.95-1.773a2.608 2.608 0 011.925-.586c1.442.14 2.5 1.43 2.36 2.875a.878.878 0 01-.875.793zm0 0M38.43 18.258c-.028 0-.059 0-.086-.004a.878.878 0 01-.79-.961.859.859 0 00-.195-.637.87.87 0 00-1.226-.12.851.851 0 00-.313.589.885.885 0 01-.96.79.882.882 0 01-.79-.962c.067-.7.407-1.332.95-1.777a2.615 2.615 0 011.921-.586c.704.07 1.332.406 1.778.95.445.542.652 1.226.586 1.925a.88.88 0 01-.875.793zm0 0M50.023 35.004a3.06 3.06 0 01-2.488-1.285.881.881 0 01.207-1.227.881.881 0 011.227.207 1.294 1.294 0 001.945.192.88.88 0 011.242.035.88.88 0 01-.035 1.242c-.57.539-1.32.836-2.098.836zm0 0M48.973 24.223c0 .453-.368.82-.825.82a.82.82 0 01-.82-.82.821.821 0 111.645 0zm0 0M54.188 24.734a.82.82 0 01-.82.82.821.821 0 110-1.644c.452 0 .82.367.82.824zm0 0" fill="#495059"/>
  <use xlink:href="#r" mask="url(#s)"/>
  <path d="M31.508 48.137c-.496 0-.985-.211-1.328-.617-.817-.97-1.91-1.512-2.32-1.715l-.051-.024a1.736 1.736 0 011.55-3.11l.043.024c.532.262 2.153 1.067 3.434 2.586a1.74 1.74 0 01-.211 2.45 1.729 1.729 0 01-1.117.406zm0 0" fill="#498a68"/>
  <path d="M8.691 37.953a.894.894 0 01-1.566 0 7.686 7.686 0 00-3.063-3.066.891.891 0 010-1.567 7.701 7.701 0 003.063-3.062.894.894 0 011.566 0 7.701 7.701 0 003.063 3.062.891.891 0 010 1.567 7.686 7.686 0 00-3.063 3.066zm0 0" fill="#fae17c"/>
  <path d="M50.602 14.266c-.38.699-1.383.699-1.762 0a8.72 8.72 0 00-3.45-3.45c-.699-.379-.699-1.382 0-1.761a8.705 8.705 0 003.45-3.453 1.005 1.005 0 011.762 0 8.69 8.69 0 003.453 3.453 1.005 1.005 0 010 1.761 8.705 8.705 0 00-3.453 3.45zm0 0" fill="#80b0e3"/>
  <path d="M50.371 53.367a.758.758 0 01-1.328 0 6.563 6.563 0 00-2.602-2.601.758.758 0 010-1.328 6.578 6.578 0 002.602-2.598.755.755 0 011.328 0 6.578 6.578 0 002.602 2.597.758.758 0 010 1.329 6.563 6.563 0 00-2.602 2.601zm0 0" fill="#8783d2"/>
</svg>
