<svg xmlns="http://www.w3.org/2000/svg" width="80" height="80" viewBox="0 0 60 60">
  <path d="M56.684 39.348H13.945v-8.25c0-.532.43-.965.965-.965h41.774c.53 0 .964.433.964.965v7.28a.968.968 0 01-.964.97zm0 0" fill="#d1a190"/>
  <path d="M56.684 39.348h-2.34v-9.215h2.34c.53 0 .964.433.964.965v7.28a.968.968 0 01-.964.97zm0 0" fill="#c78e7a"/>
  <path d="M40.313 33.613h-9.036c-.363 0-.695-.168-.855-.433l-1.824-3.047h14.398l-1.824 3.047c-.16.265-.492.433-.86.433zm0 0" fill="#f9efef"/>
  <path d="M42.996 30.133l-1.828 3.047c-.156.265-.492.433-.855.433h-2.364c.364 0 .696-.168.856-.433l1.828-3.047zm0 0" fill="#e1d3ce"/>
  <path d="M58.133 30.082H16.355a.964.964 0 01-.964-.965v-7.281c0-.535.433-.965.964-.965h41.778c.531 0 .965.43.965.965v7.281a.964.964 0 01-.965.965zm0 0" fill="#d1a190"/>
  <path d="M58.133 30.082h-2.34v-9.21h2.34c.531 0 .965.429.965.964v7.281a.964.964 0 01-.965.965zm0 0" fill="#c78e7a"/>
  <path d="M41.762 24.352h-9.035c-.364 0-.696-.168-.856-.434l-1.828-3.047h14.402l-1.828 3.047c-.16.266-.492.434-.855.434zm0 0" fill="#f9efef"/>
  <path d="M44.445 20.871l-1.828 3.043c-.16.27-.492.438-.855.438h-2.364c.364 0 .696-.168.856-.438l1.824-3.043zm0 0" fill="#e1d3ce"/>
  <path d="M53.379 20.871H11.605a.964.964 0 01-.964-.965v-7.285c0-.531.43-.965.964-.965H53.38c.535 0 .965.434.965.965v7.281c0 .535-.43.97-.965.97zm0 0" fill="#d1a190"/>
  <path d="M53.379 20.871h-2.34v-9.215h2.34c.535 0 .965.434.965.965v7.285c0 .532-.43.965-.965.965zm0 0" fill="#c78e7a"/>
  <path d="M37.008 15.137h-9.035c-.364 0-.696-.168-.856-.434l-1.824-3.047h14.398l-1.824 3.047c-.16.266-.492.434-.86.434zm0 0" fill="#f9efef"/>
  <path d="M39.691 11.656l-1.824 3.047c-.16.266-.492.434-.855.434h-2.367c.363 0 .695-.168.855-.434l1.828-3.047zm0 0" fill="#e1d3ce"/>
  <path d="M9.367 47.379h-8.02a.468.468 0 01-.468-.469V34.55a.47.47 0 01.469-.468h8.02a.47.47 0 01.468.469v12.36c0 .26-.211.468-.469.468zm0 0" fill="#f72c2c"/>
  <path d="M9.367 47.379h-8.02a.468.468 0 01-.468-.469v-4.207h8.957v4.211c0 .258-.211.465-.469.465zm0 0" fill="#e32929"/>
  <path d="M39.418 37.07a2.444 2.444 0 00-2.77-.699l-6.18 2.461c-.91.36-1.913.398-2.847.105l-1.855-.582a.41.41 0 01-.075-.753l1.657-.91a2.009 2.009 0 00.808-2.7A2.007 2.007 0 0025.813 33l-7.278 2.14a14.38 14.38 0 01-4.035.583h-1.496v9.613c2.668 2.02 8.535 2.762 11.539 3.02a9.53 9.53 0 004.168-.579c4.621-1.75 8.559-5.343 10.59-7.449.867-.898.918-2.3.117-3.258zm0 0" fill="#ffdfcf"/>
  <path d="M39.984 38.637c0 .61-.23 1.222-.683 1.691-2.031 2.102-5.969 5.7-10.59 7.45a9.471 9.471 0 01-4.168.574c-3.004-.254-8.871-.997-11.54-3.012v-2.094c2.669 2.02 8.536 2.762 11.54 3.02a9.53 9.53 0 004.168-.578c4.621-1.75 8.559-5.348 10.59-7.45.187-.195.34-.414.449-.648.156.332.234.687.234 1.047zm0 0" fill="#ffcebf"/>
  <path d="M12.555 46.297h-2.72V35.164h2.72c.25 0 .449.203.449.45v10.238c0 .246-.2.445-.45.445zm0 0" fill="#f9efef"/>
  <path d="M12.555 46.297h-2.72v-4.098h3.169v3.653c0 .246-.2.445-.45.445zm0 0" fill="#efe2dd"/>
  <path d="M58.133 19.988h-2.914c.004-.027.004-.054.004-.082v-7.285a1.845 1.845 0 00-1.844-1.844H18.25a.88.88 0 00-.879.88.88.88 0 00.879.878h6.543l1.57 2.621c.32.531.938.86 1.61.86h9.035c.676 0 1.293-.328 1.613-.86l1.57-2.62H53.38c.047 0 .086.038.086.085v7.281c0 .051-.04.086-.086.086H11.605a.083.083 0 01-.085-.082v-7.285c0-.047.039-.086.085-.086h2.758a.88.88 0 00.88-.879.88.88 0 00-.88-.879h-2.758c-1.02 0-1.843.828-1.843 1.844v7.285c0 1.016.824 1.844 1.843 1.844h2.91c0 .027-.003.055-.003.086v7.281c0 .059.004.121.011.18a1.847 1.847 0 00-1.46 1.8v3.294a1.283 1.283 0 00-.508-.106h-1.867a1.349 1.349 0 00-1.32-1.082h-8.02A1.35 1.35 0 000 34.551v1.539a.878.878 0 101.758 0v-1.125h7.195V46.5H1.758v-6.383a.88.88 0 00-.88-.879.88.88 0 00-.878.88v6.796c0 .742.605 1.344 1.348 1.344h8.02c.652 0 1.194-.465 1.32-1.082h1.867c.402 0 .761-.176 1.004-.461 1.703.898 4.937 2.008 10.91 2.515a10.484 10.484 0 004.555-.629c4.816-1.828 8.902-5.585 10.91-7.663.21-.22.382-.458.523-.711h16.227a1.848 1.848 0 001.843-1.848v-7.281c0-.059-.004-.118-.007-.176a1.85 1.85 0 001.457-1.805v-7.281c0-1.02-.829-1.848-1.844-1.848zM37.12 14.234a.257.257 0 01-.113.024h-9.035a.251.251 0 01-.11-.024l-1.02-1.699h11.298zM12.125 45.336v.082h-1.41v-9.375h1.41zM42.891 21.75l-1.016 1.695a.243.243 0 01-.113.028h-9.035a.243.243 0 01-.114-.028l-1.015-1.695zm-4.223 17.965c-1.906 1.972-5.773 5.535-10.27 7.242a8.675 8.675 0 01-3.78.52c-4.93-.418-8.794-1.36-10.735-2.598v-8.277h.617c1.453 0 2.895-.207 4.285-.618l7.274-2.14a1.131 1.131 0 01.863 2.078l-1.656.906a1.295 1.295 0 00.234 2.367l1.86.582a5.156 5.156 0 003.433-.129l6.18-2.46a1.562 1.562 0 011.77.449 1.55 1.55 0 01-.075 2.078zm18.102-1.336c0 .05-.04.09-.086.09h-15.82a3.315 3.315 0 00-.774-1.965 3.308 3.308 0 00-3.766-.95l-6.18 2.458a3.372 3.372 0 01-2.257.086l-.813-.254.696-.383a2.907 2.907 0 001.168-3.879 2.905 2.905 0 00-3.375-1.426l-7.274 2.14a13.379 13.379 0 01-3.465.54v-3.738c0-.047.035-.086.086-.086h13.188l1.57 2.62c.32.532.937.86 1.61.86h9.035c.675 0 1.292-.328 1.609-.86l1.57-2.62h13.192c.046 0 .086.039.086.086zm-26.622-7.367h11.297l-1.02 1.699a.257.257 0 01-.112.023h-9.036a.257.257 0 01-.113-.023zm28.07-1.895c0 .047-.038.086-.085.086H16.355a.087.087 0 01-.085-.086v-7.281c0-.047.039-.086.085-.086h13.192l1.57 2.617c.317.531.934.863 1.61.863h9.035c.675 0 1.293-.332 1.61-.863l1.57-2.617h13.19c.048 0 .087.04.087.086zm0 0"/>
</svg>
