<svg xmlns="http://www.w3.org/2000/svg" width="92pt" height="80" viewBox="0 0 92 60">
  <path d="M54.27 9.613h14.222c2.32 0 3.485 1.453 4.645 3.203l11.316 16.02c2.902.871 5.227.871 5.805 4.95v10.487c1.16 0 1.742.29 1.742 1.164v4.079c0 .87-.582 1.164-1.742 1.164H81.55c.293-6.117-4.934-11.36-11.317-11.36-6.093 0-11.32 5.242-11.32 11.36h-29.89c0-6.117-4.934-11.36-11.32-11.36-6.384 0-11.317 5.242-11.317 11.36H2.902C1.45 50.68 0 49.516 0 47.766V29.125h54.27zM0 27.086V2.914C0 1.164 1.45 0 2.902 0h45.274c1.453 0 2.902 1.164 2.902 2.914v24.172zm70.234 14.566c5.223 0 9.286 4.075 9.286 9.028 0 5.242-4.063 9.32-9.286 9.32-4.933 0-8.996-4.078-8.996-9.32 0-4.953 4.063-9.028 8.996-9.028zm0 4.95c2.32 0 4.352 1.746 4.352 4.078 0 2.328-2.031 4.367-4.352 4.367-2.324 0-4.062-2.04-4.062-4.367 0-2.332 1.738-4.078 4.062-4.078zm-52.53-4.95c4.933 0 9.288 4.075 9.288 9.028 0 5.242-4.355 9.32-9.289 9.32-4.933 0-8.996-4.078-8.996-9.32 0-4.953 4.063-9.028 8.996-9.028zm0 4.95c2.32 0 4.355 1.746 4.355 4.078 0 2.328-2.036 4.367-4.356 4.367s-4.351-2.04-4.351-4.367c0-2.332 2.03-4.078 4.351-4.078zm40.339-33.786v16.309h22.059l-9.29-14.27c-.87-1.168-1.738-2.039-3.48-2.039zm0 0" fill-rule="evenodd"/>
</svg>
