<svg xmlns="http://www.w3.org/2000/svg" width="80" height="80" viewBox="0 0 60 60"><path d="M18.07 42.344H4.34a.878.878 0 110-1.758h13.73a.878.878 0 110 1.758zm0 0" fill="#b3bdcc"/><path d="M3.063 46.422a.883.883 0 01-.84-1.137l3.773-12.32a.88.88 0 011.68.516L3.902 45.8a.878.878 0 01-.84.62zm0 0M19.316 46.422a.885.885 0 01-.84-.621l-3.769-12.32a.876.876 0 01.582-1.098.881.881 0 011.098.582l3.77 12.32a.876.876 0 01-.84 1.137zm0 0" fill="#b59385"/><path d="M6.82 26.71l-.89-10.175a3.241 3.241 0 00-3.227-2.957h-.828a1.878 1.878 0 00-1.867 2.043l1.234 14.09a5.753 5.753 0 005.73 5.246h11.985c1 0 1.809-.809 1.809-1.809v-.445a3.586 3.586 0 00-3.586-3.586H9.45a2.642 2.642 0 01-2.63-2.406zm0 0" fill="#78d7a8"/><path d="M2.129 13.578h-.254a1.878 1.878 0 00-1.867 2.043l1.234 14.09a5.753 5.753 0 005.73 5.246h7.489C4.297 33.359 3.35 29.922 2.129 13.578zm0 0" fill="#69bf96"/><path d="M55.66 42.344H41.93a.878.878 0 110-1.758h13.73a.878.878 0 110 1.758zm0 0" fill="#b3bdcc"/><path d="M56.938 46.422a.886.886 0 01-.844-.621l-3.77-12.32a.88.88 0 011.68-.516l3.773 12.32a.883.883 0 01-.84 1.137zm0 0M40.684 46.422a.876.876 0 01-.84-1.137l3.77-12.32a.881.881 0 011.097-.582.876.876 0 01.582 1.097l-3.77 12.32a.885.885 0 01-.84.622zm0 0" fill="#b59385"/><path d="M53.18 26.71l.89-10.175a3.241 3.241 0 013.227-2.957h.828c1.098 0 1.965.945 1.867 2.043l-1.234 14.09a5.753 5.753 0 01-5.73 5.246H41.042c-1 0-1.809-.809-1.809-1.809v-.445a3.586 3.586 0 013.586-3.586h7.73a2.642 2.642 0 002.63-2.406zm0 0" fill="#799ee5"/><path d="M53.61 21.8l-.43 4.91a2.642 2.642 0 01-2.63 2.407h-7.73a3.586 3.586 0 00-3.586 3.586v.445c0 1 .809 1.809 1.809 1.809h11.984c1.864 0 3.535-.89 4.59-2.281-2.32-1.461-3.605-5.719-4.008-10.875zm0 0" fill="#6e8fd1"/><path d="M27.746 23.633h4.508v18.293h-4.508zm0 0" fill="#b3bdcc"/><path d="M27.746 23.633h4.508v3.933h-4.508zm0 0" fill="#a8b2bf"/><path d="M33.719 41.926H26.28A2.358 2.358 0 0024 43.687l-.21.817a.828.828 0 00.8 1.039h10.82a.828.828 0 00.8-1.04l-.21-.816a2.358 2.358 0 00-2.281-1.761zm0 0" fill="#414c59"/><path d="M42.387 19.621H17.613a3.187 3.187 0 00-3.12 2.543 1.224 1.224 0 001.198 1.469H44.31c.773 0 1.355-.711 1.199-1.469a3.187 3.187 0 00-3.121-2.543zm0 0" fill="#f4e08f"/><path d="M33.934 23.633c-2.368-1.055-2.926-2.934-2.614-4.012H17.613a3.187 3.187 0 00-3.12 2.543 1.224 1.224 0 001.198 1.469zm0 0" fill="#ebce72"/></svg>