<svg xmlns="http://www.w3.org/2000/svg" width="80" height="80" viewBox="0 0 60 60"><path d="M29.734 45.375c2.793 0 4.844-.73 6.192-1.89 1.336-1.15 2.035-2.77 2.035-4.684 0-1.13-.297-2.012-.797-2.73-.504-.731-1.242-1.329-2.176-1.848-1.574-.88-3.593-1.473-5.765-2.114-.43-.129-.864-.257-1.305-.39-2.61-.79-5.32-1.727-7.379-3.375-2.094-1.68-3.48-4.078-3.48-7.696 0-5.312 3.96-9.875 10.453-10.843l-.008-2.301a2.5 2.5 0 015-.008l.008 2.316c2.949.465 5.793 1.782 8.02 3.782.933.84.847 2.273-.04 3.16-1.062 1.066-2.828.898-4.027-.008-1.824-1.387-4.102-2.121-6.453-2.121-5.043 0-7.676 2.953-7.676 6.023 0 1.13.293 2.012.793 2.73.508.731 1.246 1.329 2.176 1.849 1.578.878 3.597 1.476 5.77 2.117.429.125.863.254 1.3.386 2.61.79 5.324 1.727 7.379 3.375 2.094 1.684 3.48 4.082 3.48 7.696 0 3.02-1.007 5.695-2.941 7.719-1.84 1.921-4.477 3.214-7.781 3.675l-.008 2.309a2.499 2.499 0 11-5-.008l.008-2.23c-3.707-.422-6.45-1.828-8.29-3.164-.472-.34-1.124-.977-1.722-1.594-.82-.852-.816-2.2-.027-3.078.984-1.09 2.734-.957 3.851-.004 2.297 1.957 5.34 2.949 8.41 2.949zm0 0"/></svg>