<svg xmlns="http://www.w3.org/2000/svg" width="652" height="80" viewBox="0 0 489 60"><path d="M142.504 17.602v24.835h6.184a11.803 11.803 0 008.414-3.707A12.447 12.447 0 00160.5 30a12.24 12.24 0 00-3.344-8.77 11.599 11.599 0 00-8.46-3.632h-6.184zm6.184-7.786c11.53 0 20.253 8.942 20.253 20.184s-8.722 20.234-20.254 20.234h-13.644a.97.97 0 01-.695-.297c-.18-.19-.313-.445-.282-.707V10.863c0-.554.442-1.011.946-1.011l13.644-.036zm49.972 33.489c5.238.015 9.969-3.207 11.98-8.172a13.537 13.537 0 00-2.769-14.485 12.7 12.7 0 00-14.101-2.91c-4.848 2.047-7.993 6.887-8 12.262 0 7.328 5.765 13.27 12.933 13.305m0-34.407c12.137 0 21.418 9.575 21.418 21.102 0 11.527-9.277 21.102-21.422 21.102-12.148 0-21.398-9.528-21.398-21.102s9.277-21.102 21.336-21.102m50.902 34.407c7.137-.02 12.914-6 12.91-13.262-.008-7.266-5.773-13.305-12.902-13.305S236.613 22.672 236.602 30c0 3.531 1.363 6.95 3.796 9.41a12.754 12.754 0 009.168 3.895m0-34.407c12.098 0 21.38 9.528 21.38 21.102s-9.317 21.102-21.38 21.102c-12.062 0-21.414-9.528-21.414-21.102s9.274-21.102 21.414-21.102m49.676 8.704h-8.722v10.691h8.722a5.039 5.039 0 003.75-1.43 5.3 5.3 0 001.594-3.761 5.404 5.404 0 00-1.512-3.938 5.082 5.082 0 00-3.832-1.547zm-17.16-6.743c0-.554.441-1.011.977-1.011h16.425c7.829 0 13.496 5.89 13.496 13.285.063 5.004-2.671 9.601-7.027 11.836l7.57 13.75c.215.32.227.734.04 1.07a.953.953 0 01-.926.492h-6.649a.972.972 0 01-.89-.543l-7.301-13.601h-7.317v13.058a1.001 1.001 0 01-.98 1.008h-6.402a.966.966 0 01-.696-.3c-.18-.188-.316-.442-.285-.708l-.043-38.336zm52.895 6.934v24.84h6.183a11.831 11.831 0 008.418-3.696 12.438 12.438 0 003.399-8.726 12.233 12.233 0 00-3.336-8.785 11.612 11.612 0 00-8.477-3.633zm6.183-7.8c11.531 0 20.254 8.952 20.254 20.214 0 11.266-8.723 20.219-20.254 20.219H327.56a.966.966 0 01-.696-.301c-.18-.188-.316-.441-.285-.707V11.051c0-.559.442-1.008.95-1.008l13.605-.047zm45.985 9.878l-4.786 13.285h9.559l-4.773-13.281zm-7.594 20.785l-3.133 8.844a.975.975 0 01-.977.695h-6.796a.963.963 0 01-.891-.422c-.2-.296-.234-.68-.086-1.007l14.684-38.336a.978.978 0 01.976-.664h7.57a.985.985 0 01.985.664l14.68 38.336c.148.332.113.71-.086 1.007a.958.958 0 01-.895.418h-6.793a.975.975 0 01-.976-.695l-3.133-8.84h-15.16zm34.926-19.894c0-6.313 5.343-11.836 13.785-11.836a17.222 17.222 0 0112.242 4.738c.203.191.316.457.316.738 0 .282-.113.547-.316.739l-3.77 3.808a.972.972 0 01-1.39 0 9.736 9.736 0 00-6.528-2.644c-3.375 0-5.87 2.011-5.87 4.332 0 7.504 19.949 3.172 19.949 17.613-.008 7.316-5.364 12.852-14.915 12.852a19.713 19.713 0 01-14.234-5.868c-.2-.191-.312-.46-.312-.738 0-.277.113-.547.312-.742l3.64-3.738a.978.978 0 01.712-.309c.27 0 .527.113.71.309a12.383 12.383 0 008.602 3.601c4.219 0 7-2.312 7-5.21 0-7.509-19.941-3.173-19.941-17.614m64.601-9.988v15.172h-16.886V10.809a.958.958 0 00-.286-.704 1.002 1.002 0 00-.691-.3h-6.406a.964.964 0 00-.692.3c-.183.188-.316.442-.285.704v38.328c0 .554.442 1.011.946 1.011h6.406c.535 0 .945-.453.945-1.011v-15.41h16.871v15.41c0 .554.442 1.011.945 1.011h6.407c.535 0 .945-.453.945-1.011V10.809a.97.97 0 00-.281-.704 1.018 1.018 0 00-.695-.3h-6.407a.99.99 0 00-.965 1.004zM98.121 14.922C93.68 6.68 84.992 1.547 75.535 1.578H4.023A2.462 2.462 0 001.762 3.09a2.412 2.412 0 00.531 2.637l15.578 15.476a7.364 7.364 0 005.2 2.137h50.413c3.598-.04 6.532 2.844 6.57 6.355.04 3.516-2.84 6.453-6.437 6.489H38.86c-.984 0-1.879.593-2.261 1.504a2.408 2.408 0 00.523 2.644L52.707 55.82a7.388 7.388 0 005.2 2.133h15.722c20.453 0 35.918-21.598 24.488-43.043" fill="#ff3008"/></svg>