<svg xmlns="http://www.w3.org/2000/svg" width="29pt" height="80" viewBox="0 0 29 60"><path d="M11.188 21.953v-10.5c0-1.09-.692-1.363-1.52-.543l-4.836 4.774c-2.621 2.59-6.488-1.23-3.867-3.82L12.152.953a2.443 2.443 0 013.453 0l11.325 10.91c2.62 2.59-1.242 6.41-3.867 3.82l-4.836-4.774c-.829-.82-1.516-.547-1.516.543v37.23c0 1.09.687 1.364 1.516.544l4.835-4.774c2.625-2.59 6.489 1.23 3.868 3.82l-11.188 10.91a2.443 2.443 0 01-3.453 0L.965 48.274c-2.621-2.59 1.246-6.41 3.867-3.82l4.836 4.774c.828.82 1.52.546 1.52-.543zm0 0"/></svg>