<svg xmlns="http://www.w3.org/2000/svg" width="80" height="80" viewBox="0 0 60 60"><path d="M46.4102 14.3164C41.664 5.086 35.8203 0 29.957 0 24.0937 0 18.25 5.086 13.504 14.3164c-3.8009 7.3945-6.3556 16.586-6.3556 22.875C7.1484 49.7695 17.379 60 29.957 60c12.5782 0 22.8086-10.2305 22.8086-22.8086 0-6.289-2.5547-15.4805-6.3554-22.875zM29.957 56.4336c-10.6093 0-19.2422-8.6328-19.2422-19.2422 0-5.7734 2.3946-14.3086 5.961-21.2422C20.7227 8.082 25.5625 3.5664 29.957 3.5664c4.3946 0 9.2344 4.5156 13.2813 12.3828 3.5664 6.9336 5.961 15.4688 5.961 21.2422 0 10.6094-8.6329 19.2422-19.2423 19.2422zm0 0"/></svg>