<svg xmlns="http://www.w3.org/2000/svg" xmlns:xlink="http://www.w3.org/1999/xlink" width="80" height="80" viewBox="0 0 60 60">
  <defs>
    <clipPath id="b">
      <path d="M0 0h60v60H0z"/>
    </clipPath>
    <clipPath id="c">
      <path d="M0 0h60v60H0z"/>
    </clipPath>
    <clipPath id="d">
      <path d="M0 0h60v60H0z"/>
    </clipPath>
    <clipPath id="e">
      <path d="M0 0h60v60H0z"/>
    </clipPath>
    <clipPath id="f">
      <path d="M0 0h60v60H0z"/>
    </clipPath>
    <clipPath id="g">
      <path d="M0 0h60v60H0z"/>
    </clipPath>
    <mask id="i">
      <g filter="url(#a)">
        <path fill-opacity=".102" d="M0 0h60v60H0z"/>
      </g>
    </mask>
    <mask id="k">
      <g filter="url(#a)">
        <path fill-opacity=".102" d="M0 0h60v60H0z"/>
      </g>
    </mask>
    <mask id="m">
      <g filter="url(#a)">
        <path fill-opacity=".102" d="M0 0h60v60H0z"/>
      </g>
    </mask>
    <mask id="o">
      <g filter="url(#a)">
        <path fill-opacity=".051" d="M0 0h60v60H0z"/>
      </g>
    </mask>
    <mask id="q">
      <g filter="url(#a)">
        <path fill-opacity=".102" d="M0 0h60v60H0z"/>
      </g>
    </mask>
    <mask id="s">
      <g filter="url(#a)">
        <path fill-opacity=".051" d="M0 0h60v60H0z"/>
      </g>
    </mask>
    <g id="h" clip-path="url(#b)">
      <path d="M12.09 41.23c.101 2.856.539 5.704 2.297 8.075 4.36.492 8.843.492 13.031.492L15.465 39.199c-.918.79-2.055 1.48-3.375 2.031zm0 0"/>
    </g>
    <g id="j" clip-path="url(#c)">
      <path d="M36.52 45.95l-.047-.114a2.948 2.948 0 00-5.461 2.223l.05.12c1.372 3.352 1.836 5.012 1.993 5.766 2.246-.28 4.129-.793 5.691-1.554-.312-1.332-.95-3.317-2.226-6.442zm0 0"/>
    </g>
    <g id="l" clip-path="url(#d)">
      <path d="M21.941 44.219a2.946 2.946 0 00-1.687 3.652c.148.762.254 3.39.262 5.406 1.675.485 3.625.774 5.875.88.027-2.45-.024-6.891-.61-8.321a2.942 2.942 0 00-3.84-1.617zm0 0"/>
    </g>
    <g id="n" clip-path="url(#e)">
      <path d="M25.91 27.168c-6.207 1.105-10.898 6.16-10.898 12.23 0 6.372.8 11.114 10.86 11.778-5.583-5.668-4.505-17.371.038-24.008zm0 0"/>
    </g>
    <g id="p" clip-path="url(#f)">
      <path d="M20.23 25.559a.907.907 0 01-1.812 0c0-.504.406-.91.906-.91s.906.406.906.91zm0 0M26.68 26.941a.907.907 0 11-1.814 0 .907.907 0 011.814 0zm0 0M22.988 30.035c0 .504-.406.91-.906.91a.908.908 0 010-1.816c.5 0 .906.406.906.906zm0 0"/>
    </g>
    <g id="r" clip-path="url(#g)">
      <path d="M22.418 3.762c-5.871 1.332-10.254 6.582-10.254 12.855v6.059c0 6.535 5.297 11.832 11.828 11.832h7.18c-10.453-6.082-12.227-22.805-8.754-30.746zm0 0"/>
    </g>
    <filter id="a" filterUnits="objectBoundingBox" x="0%" y="0%" width="100%" height="100%">
      <feColorMatrix in="SourceGraphic" values="0 0 0 0 1 0 0 0 0 1 0 0 0 0 1 0 0 0 1 0"/>
    </filter>
  </defs>
  <path d="M43.426 46.121c-.645 0-1.27-.324-1.633-.91-.73-1.191-1.832-1.957-2.25-2.25l-.05-.031a1.917 1.917 0 012.2-3.14l.041.03c.54.375 2.172 1.516 3.32 3.383a1.912 1.912 0 01-.628 2.633 1.872 1.872 0 01-1 .285zm0 0" fill="#498a68"/>
  <path d="M27.418 49.797c-8.938 0-19.227 0-26.758-4.809-1.289-.82-.543-2.808.973-2.605 5.965.797 10.972-.723 13.832-3.184zm0 0" fill="#5cb38e"/>
  <use xlink:href="#h" mask="url(#i)"/>
  <path d="M23.418 58.52c-.078 0-.152-.004-.23-.012a2.946 2.946 0 01-2.711-3.164c.113-1.473-.008-6.383-.223-7.473a2.946 2.946 0 011.687-3.652 2.942 2.942 0 013.84 1.617c.797 1.95.606 9.488.57 9.96a2.946 2.946 0 01-2.933 2.724zm-3.094-10.465v0zm0 0M36.082 57.441h-.008a2.95 2.95 0 01-2.941-2.957c0-.129-.074-1.425-2.07-6.304l-.051-.121a2.948 2.948 0 015.46-2.223l.048.113c2.23 5.457 2.511 7.438 2.507 8.551a2.947 2.947 0 01-2.945 2.941zm0 0" fill="#498a68"/>
  <use xlink:href="#j" mask="url(#k)"/>
  <use xlink:href="#l" mask="url(#m)"/>
  <path d="M41.922 39.398c0 6.883-.934 11.86-13.457 11.86-12.52 0-13.453-4.977-13.453-11.86 0-6.878 6.023-12.457 13.453-12.457 7.433 0 13.457 5.579 13.457 12.457zm0 0" fill="#5cb38e"/>
  <path d="M41.922 39.398c0-.054-.004-.109-.004-.164-2.8-.718-8.36-.925-12.23 3.184-2.817 2.996-3.227 6.23-2.922 8.809a47.2 47.2 0 001.699.03c12.523 0 13.457-4.976 13.457-11.859zm0 0" fill="#9bdfc1"/>
  <use xlink:href="#n" mask="url(#o)"/>
  <path d="M40.816 9a12.41 12.41 0 00-10.351-5.563h-5.121c-7.278 0-13.18 5.899-13.18 13.18v6.059c0 6.535 5.297 11.832 11.828 11.832h27.145A8.864 8.864 0 0060 25.645V21.52c0-4.895-3.969-8.86-8.863-8.86H47.62A8.16 8.16 0 0140.816 9zm0 0" fill="#5cb38e"/>
  <path d="M50.238 28.406h-1.707a.878.878 0 01-.879-.879c0-.488.391-.879.88-.879h1.706a.878.878 0 110 1.758zm0 0" fill="#495059"/>
  <use xlink:href="#p" mask="url(#q)"/>
  <path d="M23.605 13.328c0-1.687-1.671-3.055-3.73-3.055s-3.727 1.368-3.727 3.055c0 1.688 1.668 3.05 3.727 3.05s3.73-1.362 3.73-3.05zm0 0M40.61 13.328c0-1.687-1.672-3.055-3.731-3.055s-3.727 1.368-3.727 3.055c0 1.688 1.668 3.05 3.727 3.05s3.73-1.362 3.73-3.05zm0 0" fill="#ffa8cb"/>
  <path d="M23.605 11.746a.878.878 0 01-.878-.879v-.16a.878.878 0 111.757 0v.16a.88.88 0 01-.879.88zm0 0M33.152 11.746a.88.88 0 01-.879-.879v-.16a.88.88 0 01.88-.879.88.88 0 01.878.879v.16a.88.88 0 01-.879.88zm0 0M47.398 17.29a.907.907 0 01-1.812 0c0-.505.406-.911.906-.911s.906.406.906.91zm0 0M53.18 17.29a.907.907 0 01-1.813 0c0-.505.406-.911.906-.911s.907.406.907.91zm0 0" fill="#495059"/>
  <use xlink:href="#r" mask="url(#s)"/>
  <path d="M29.402 43.828c-1.523 0-2.828-.5-3.422-.969a1.915 1.915 0 012.285-3.074c.258.117 1.407.457 2.438-.105a1.92 1.92 0 012.602.758c.508.93.168 2.093-.762 2.601a6.499 6.499 0 01-3.14.79zm-1.039-3.969zm0 0" fill="#498a68"/>
  <path d="M17.68 11.91a5.109 5.109 0 01-7.227 0 5.114 5.114 0 010-7.23l2.902-2.903a1.002 1.002 0 011.422 0L17.68 4.68a5.114 5.114 0 010 7.23zm0 0" fill="#a3e3ff"/>
</svg>
