<svg xmlns="http://www.w3.org/2000/svg" width="80" height="80" viewBox="0 0 60 60">
  <path d="M30 21.816c-4.512 0-8.184 3.672-8.184 8.184 0 4.516 3.672 8.184 8.184 8.184 4.516 0 8.184-3.668 8.184-8.184 0-4.512-3.672-8.184-8.184-8.184zm0 0"/>
  <path d="M30 9.547C16.363 9.547 4.719 18.027 0 30c4.719 11.973 16.363 20.453 30 20.453 13.648 0 25.281-8.48 30-20.453C55.281 18.027 43.648 9.547 30 9.547zm0 34.09c-7.527 0-13.637-6.11-13.637-13.637S22.473 16.363 30 16.363 43.637 22.473 43.637 30 37.527 43.637 30 43.637zm0 0"/>
</svg>
