<svg xmlns="http://www.w3.org/2000/svg" width="80" height="80" viewBox="0 0 60 60">
  <path d="M60 30c0 16.57-13.43 30-30 30S0 46.57 0 30 13.43 0 30 0s30 13.43 30 30zm0 0" fill-rule="evenodd" fill="#efefef"/>
  <path d="M23.047 42.297c0 1.098-.89 1.984-1.985 1.984a1.981 1.981 0 01-1.98-1.984 1.98 1.98 0 011.98-1.98c1.094 0 1.985.886 1.985 1.98zm14.539 0a1.982 1.982 0 11-3.964.004 1.982 1.982 0 013.964-.004zm7.27-24.453H40.89L35.6 40.316H21.063" fill="none" stroke-width="1.37932" stroke-linecap="round" stroke-linejoin="round" stroke="#4c4c4c"/>
  <path d="M36.266 37.672H19.082l-3.969-11.895h23.88m-10.661 0l5.29-5.289 5.39 5.29m-17.29 0l-3.964-8.844-3.305 1.57 3.305 7.273" fill="none" stroke-width="1.37932" stroke-linecap="round" stroke-linejoin="round" stroke="#4c4c4c"/>
  <path d="M26.352 25.777V21.81h5.945" fill="none" stroke-width="1.37932" stroke-linecap="round" stroke-linejoin="round" stroke="#4c4c4c"/>
  <path d="M46.207 31.035h8.277M42.07 35.172h8.274" fill="none" stroke-width="1.37932" stroke-linecap="square" stroke="#4c4c4c"/>
</svg>
