<svg xmlns="http://www.w3.org/2000/svg" width="80" height="80" viewBox="0 0 60 60">
  <path d="M52.5 50h-45A2.502 2.502 0 005 52.5C5 53.879 6.121 55 7.5 55h45c1.379 0 2.5-1.121 2.5-2.5S53.879 50 52.5 50zm0 0M50 22.5c0-1.379-1.121-2.5-2.5-2.5h-35a2.502 2.502 0 00-2.5 2.5c0 1.379 1.121 2.5 2.5 2.5v17.5A2.502 2.502 0 0010 45c0 1.379 1.121 2.5 2.5 2.5h35c1.379 0 2.5-1.121 2.5-2.5s-1.121-2.5-2.5-2.5V25c1.379 0 2.5-1.121 2.5-2.5zM32.5 25v17.5h-5V25zm-15 0h5v17.5h-5zm25 17.5h-5V25h5zm0 0"/>
  <path d="M8.516 19.785L30 10.238l21.484 9.547a2.499 2.499 0 003.301-1.27 2.497 2.497 0 00-1.27-3.3l-22.5-10a2.51 2.51 0 00-2.027 0l-22.5 10a2.5 2.5 0 102.028 4.57zm0 0"/>
</svg>
