<svg xmlns="http://www.w3.org/2000/svg" width="68" height="100pt" viewBox="0 0 51 100"><g fill-rule="evenodd"><path d="M22.867 63.969c3.738 3.047 3.738 7.992 0 11.043-3.738 3.05-9.8 3.05-13.539 0-3.738-3.051-6.887-16.66-6.887-16.66s16.688 2.566 20.426 5.617zm0 0" fill="#ffcc75"/><path d="M28.563 63.969c-3.739 3.047-3.739 7.992 0 11.043 3.738 3.05 9.8 3.05 13.539 0 3.738-3.051 6.886-16.66 6.886-16.66s-16.687 2.566-20.425 5.617zm0 0M23.242 49.54c3.246 2.644 3.246 6.933 0 9.577-3.242 2.645-8.5 2.645-11.746 0-3.242-2.644-5.969-14.453-5.969-14.453S20 46.891 23.242 49.54zm0 0" fill="#ffcc75"/><path d="M28.188 49.54c-3.247 2.644-3.247 6.933 0 9.577 3.242 2.645 8.5 2.645 11.746 0 3.242-2.644 5.968-14.453 5.968-14.453S31.43 46.891 28.187 49.54zm0 0M23.242 35.191c3.246 2.649 3.246 6.938 0 9.582-3.242 2.645-8.5 2.645-11.746 0C8.254 42.13 5.527 30.32 5.527 30.32S20 32.547 23.242 35.191zm0 0" fill="#ffcc75"/><path d="M28.188 35.191c-3.247 2.649-3.247 6.938 0 9.582 3.242 2.645 8.5 2.645 11.746 0 3.242-2.644 5.968-14.453 5.968-14.453s-14.472 2.227-17.715 4.871zm0 0M23.465 22c2.953 2.41 2.953 6.316 0 8.727-2.957 2.41-7.746 2.41-10.7 0-2.956-2.41-5.44-13.165-5.44-13.165S20.507 19.59 23.464 22zm0 0" fill="#ffcc75"/><path d="M27.965 22c-2.953 2.41-2.953 6.316 0 8.727 2.957 2.41 7.746 2.41 10.7 0 2.956-2.41 5.44-13.165 5.44-13.165S30.922 19.59 27.965 22zm0 0M23.84 11.004c2.46 2.008 2.46 5.258 0 7.266-2.457 2.003-6.445 2.003-8.902 0-2.461-2.008-4.528-10.957-4.528-10.957S21.383 9 23.84 11.002zm0 0" fill="#ffcc75"/><path d="M27.59 11.004c-2.461 2.008-2.461 5.258 0 7.266 2.457 2.003 6.445 2.003 8.902 0 2.461-2.008 4.531-10.957 4.531-10.957S30.047 9 27.59 11.002zm0 0M19.418 59c0 2.836 2.82 5.137 6.297 5.137 3.476 0 6.297-2.301 6.297-5.137 0-2.836-6.297-10.36-6.297-10.36S19.418 56.165 19.418 59zm0 0" fill="#ffcc75"/><path d="M20.445 45.598c0 2.37 2.36 4.297 5.27 4.297 2.91 0 5.27-1.922 5.27-4.297s-5.27-8.672-5.27-8.672-5.27 6.297-5.27 8.672zm0 0M21.293 32.066c0 1.989 1.98 3.606 4.422 3.606 2.441 0 4.422-1.613 4.422-3.606 0-1.992-4.422-7.273-4.422-7.273s-4.422 5.281-4.422 7.273zm0 0M21.719 19.441c0 1.801 1.789 3.262 3.996 3.262s3.996-1.46 3.996-3.262c0-1.796-3.996-6.57-3.996-6.57s-3.996 4.774-3.996 6.57zm0 0" fill="#ffcc75"/><path d="M50.715 56.945c-.57-.468-1.387-.672-2.18-.55-.77.117-2.37.375-4.379.746 2.258-4.282 3.79-10.555 4.149-12.106.148-.648-.106-1.312-.676-1.777-.57-.465-1.387-.672-2.18-.551-.308.05-.777.121-1.363.219 2.293-4.285 3.855-10.668 4.219-12.235.148-.648-.106-1.312-.676-1.777-.57-.469-1.387-.672-2.18-.55-.511.077-1.449.226-2.644.44 2.02-3.921 3.379-9.48 3.699-10.874.148-.649-.102-1.313-.672-1.778-.57-.465-1.387-.672-2.18-.55-.547.085-1.625.257-2.988.507 1.438-3.066 2.41-6.925 2.758-8.43.148-.648-.102-1.312-.676-1.777-.57-.465-1.383-.672-2.176-.55-2.207.34-8.558 1.41-12.414 2.988V6.492l3.875-3.07c.969-.766.992-2.027.051-2.817-.941-.789-2.488-.808-3.453-.042L25.715 2.87 22.8.563c-.969-.766-2.512-.747-3.453.042-.942.79-.918 2.047.05 2.817l3.875 3.07v1.852C19.418 6.762 13.066 5.69 10.86 5.355c-.793-.125-1.609.082-2.18.547-.57.465-.82 1.133-.671 1.778.347 1.504 1.32 5.363 2.758 8.43a98.108 98.108 0 0 0-2.989-.505c-.793-.125-1.609.082-2.18.547-.57.465-.824 1.133-.671 1.778.32 1.394 1.68 6.953 3.695 10.875-1.191-.211-2.129-.364-2.644-.442-.793-.12-1.606.086-2.176.551-.574.465-.824 1.129-.676 1.777.363 1.567 1.926 7.954 4.219 12.239-.586-.098-1.055-.172-1.367-.223-.793-.121-1.606.086-2.176.55-.574.466-.824 1.13-.676 1.778.36 1.55 1.89 7.824 4.148 12.106-2.007-.371-3.609-.625-4.378-.746-.793-.122-1.61.082-2.18.55-.57.465-.82 1.13-.672 1.778.547 2.37 3.492 14.382 7.555 17.699 2.343 1.91 5.422 2.863 8.496 2.863 2.531 0 5.058-.644 7.18-1.933v12.09c0 1.101 1.093 1.992 2.44 1.992 1.349 0 2.442-.891 2.442-1.993v-12.09c2.121 1.29 4.649 1.934 7.176 1.934 3.078 0 6.156-.953 8.496-2.863 4.067-3.317 7.008-15.328 7.559-17.7.148-.648-.102-1.312-.672-1.777zM34.765 16.86c.88-.714 2.118-3.757 3.067-6.945-3.91.777-7.64 1.785-8.516 2.5a2.924 2.924 0 0 0-.441.438c1.105 1.437 2.43 3.351 2.996 4.925 1.067.035 2.125-.289 2.895-.918zm-12.652-4.445c.164.133.313.281.446.434-1.106 1.437-2.434 3.355-3 4.93-1.067.038-2.118-.282-2.895-.919-.879-.714-2.113-3.754-3.066-6.945 3.914.777 7.64 1.785 8.515 2.5zm3.602 3.906c.883 1.278 1.504 2.371 1.555 2.817-.012.691-.704 1.254-1.555 1.254-.852 0-1.543-.563-1.555-1.254.05-.442.672-1.54 1.555-2.817zm-2.883 8.414a4.288 4.288 0 0 0-1.094-1.328c-1.203-.98-6.215-2.3-11.246-3.261 1.176 4.101 2.797 8.19 4 9.171 1.246 1.02 3.04 1.43 4.73 1.125.727-1.867 2.376-4.144 3.61-5.707zm14.105 4.582c-1.246 1.02-3.039 1.43-4.73 1.125-.727-1.867-2.375-4.148-3.61-5.707a4.288 4.288 0 0 1 1.094-1.328c1.204-.98 6.215-2.3 11.247-3.261-1.176 4.101-2.797 8.19-4 9.171zm-11.222-.78c1.137 1.605 1.941 3.01 1.976 3.53 0 .887-.886 1.614-1.976 1.614-1.09 0-1.973-.723-1.977-1.61.035-.523.844-1.93 1.977-3.535zm-4.2 8.066c.325.265.606.554.84.87-1.57 2.028-3.718 5.094-4.238 7.255-1.785.187-3.59-.301-4.89-1.364-1.504-1.226-3.325-6.16-4.54-10.465 5.278.993 11.325 2.477 12.829 3.704zm8.4 0a5.186 5.186 0 0 0-.84.87c1.57 2.032 3.722 5.094 4.238 7.255 1.785.191 3.585-.297 4.89-1.364 1.504-1.226 3.324-6.16 4.54-10.465-5.278.993-11.325 2.477-12.829 3.704zm-1.372 8.996c-.004-.684-1.191-2.723-2.828-4.965-1.633 2.242-2.824 4.281-2.828 4.965 0 .695.383 1.316.98 1.742.461-.438 1.133-.692 1.848-.692.715 0 1.387.254 1.848.692.597-.426.98-1.047.98-1.742zM16.977 59c0-2.11 2.234-5.605 4.207-8.285-1.922-1.18-7.547-2.543-12.497-3.473 1.211 4.305 3.036 9.242 4.54 10.469 1.02.832 2.351 1.312 3.753 1.387-.003-.032-.003-.067-.003-.098zm13.27-8.285c1.917-1.18 7.546-2.543 12.495-3.473-1.215 4.305-3.035 9.242-4.539 10.469-1.027.836-2.355 1.316-3.754 1.39 0-.035.004-.066.004-.101 0-2.11-2.234-5.605-4.207-8.285zM29.57 59c0-1.012-1.761-3.875-3.855-6.68-2.094 2.805-3.856 5.668-3.856 6.68 0 1.734 1.73 3.145 3.856 3.145 2.125 0 3.855-1.41 3.855-3.145zm.72 14.602c2.78 2.27 7.308 2.27 10.085 0 1.84-1.5 4.055-7.575 5.465-12.68-6.266 1.148-13.711 2.957-15.55 4.453-2.778 2.27-2.778 5.96 0 8.227zm-9.15 0c-2.78 2.27-7.304 2.27-10.085 0-1.836-1.497-4.051-7.57-5.465-12.68 6.265 1.152 13.71 2.957 15.55 4.453 2.778 2.27 2.778 5.96 0 8.227zm0 0M25.715 94.023c-1.348 0-2.442.891-2.442 1.993v1.992c0 1.101 1.094 1.992 2.442 1.992s2.441-.89 2.441-1.992v-1.992c0-1.102-1.093-1.993-2.441-1.993zm0 0"/></g></svg>