<svg xmlns="http://www.w3.org/2000/svg" width="283pt" height="80" viewBox="0 0 283 60">
  <path d="M196.918 1.508h-9.887c-.566 0-.847.566-.847.847v21.56h-9.887V2.354c0-.566-.567-.847-.848-.847h-9.89c-.563 0-.848.566-.848.847v55.333c0 .566.566.851.848.851h9.89c.563 0 .848-.566.848-.852v-22.12h9.887v22.12c0 .567.566.852.847.852h9.887c.566 0 .848-.566.848-.852V2.355c0-.28-.282-.847-.848-.847zm-83.34 0h-9.887c-.566 0-.847.281-.847.847v39.2c0 1.98-.567 3.398-1.414 4.527-.848 1.133-1.977 1.418-3.39 1.418a4.754 4.754 0 01-3.392-1.418c-.847-1.129-1.41-2.547-1.41-4.527v-39.2c0-.566-.566-.847-.847-.847h-9.887c-.567 0-.848.281-.848.847V41.84c0 5.094 1.13 9.906 4.235 13.066 3.109 3.114 7.347 4.809 12.195 4.809 5.086 0 9.371-1.695 12.195-4.809 3.11-3.113 4.239-7.644 4.239-13.066V2.355c-.047-.28-.329-.847-.942-.847zM16.676.66C11.594.66 7.309 2.355 4.484 5.47 1.375 8.582.246 13.113.246 18.535v23.586c0 5.094 1.129 9.906 4.238 13.066C7.59 58.301 11.828 60 16.676 60c5.086 0 9.37-1.7 12.195-4.813 3.11-3.113 4.238-7.64 4.238-13.066v-13.02c0-.566-.566-1.132-1.129-1.132H17.523c-.562 0-1.128.566-1.128 1.133v9.671c0 .567.566 1.13 1.128 1.13h3.723v2.265c0 1.98-.566 3.727-1.414 4.812-.848 1.133-1.977 1.415-3.39 1.415a4.767 4.767 0 01-3.391-1.415c-.848-1.132-1.41-2.832-1.41-4.812v-23.3c0-1.985.566-3.727 1.41-4.813.847-1.133 1.98-1.414 3.39-1.414a4.76 4.76 0 013.391 1.414c.848 1.133 1.414 2.832 1.414 4.812v2.262c0 .566.563.851.848.851h9.886c.567 0 .848-.285.848-.851v-2.262c0-5.097-1.129-9.906-4.238-13.066C26.047 2.355 21.48.656 16.68.656zM144.184 45.8c-.848 1.134-1.977 1.415-3.72 1.415h-5.651v-11.98h5.652c1.41 0 2.539.566 3.387 1.413a6.937 6.937 0 011.414 4.247c.093 2.359-.188 3.726-1.082 4.906zm-9.371-32.64h5.085c1.415 0 2.543.281 3.391 1.414.848.848 1.129 2.262 1.129 4.008s-.281 3.113-1.129 4.246c-.848.848-1.976 1.414-3.11 1.414h-5.085V13.16zm16.433 16.18c1.695-1.7 4.8-5.664 4.8-10.805 0-5.988-2.257-9.668-4-11.648-3.108-3.399-7.347-5.098-12.194-5.098h-15.493c-.562 0-.847.566-.847.852v55.375c0 .566.566.851.847.851h16.434c5.086 0 9.887-1.98 13.043-5.992 1.695-2.262 3.719-5.988 3.719-11.648-.328-6.793-4.567-10.805-6.309-11.891zm-90.074-5.426c-.848 1.133-2.258 1.7-4 1.7h-4.805V13.16h4.805c1.695 0 3.105.567 4 1.7 1.133 1.128 1.414 2.546 1.414 4.527 0 1.98-.238 3.394-1.414 4.527zm6.262 10.234c1.132-.847 1.98-1.414 2.828-2.546 1.976-2.262 4.52-6.274 4.52-12.5 0-5.989-2.262-9.907-4.52-12.215-2.828-3.399-7.063-5.098-11.914-5.38H41.914c-.562 0-.848.567-.848.848v55.333c0 .566.567.851.848.851h9.89c.563 0 .848-.566.848-.852V37.215h3.391l6.262 20.992c0 .281.562.566.847.566h10.453l.848-.28c.281 0 .281-.567.281-.852l-7.296-23.489zm201.71 11.653c-.847 1.133-1.976 1.414-3.718 1.414h-5.649v-11.98h5.649c1.414 0 2.543.566 3.39 1.413a6.96 6.96 0 011.41 4.247c.333 2.359-.187 3.726-1.081 4.906zm-9.085-32.64h5.086c1.41 0 2.543.28 3.39 1.413.848.848 1.13 2.266 1.13 4.008 0 1.746-.282 3.113-1.13 4.246-.848.852-1.98 1.414-3.11 1.414h-5.085V13.16zm16.433 16.179c1.695-1.7 4.801-5.66 4.801-10.805 0-5.988-2.262-9.668-4.004-11.648-3.105-3.399-7.344-5.098-12.191-5.098h-15.633c-.567 0-.848.566-.848.852V58.02c0 .566.563.847.848.847h16.527c5.082 0 9.887-1.98 13.04-5.992 1.695-2.262 3.722-5.988 3.722-11.648-.567-6.793-4.805-10.805-6.262-11.887zM238.54 1.508h-9.887c-.566 0-.847.281-.847.847v39.2c0 1.98-.567 3.398-1.414 4.527-.848 1.133-1.977 1.418-3.387 1.418a4.747 4.747 0 01-3.39-1.418c-.848-1.129-1.415-2.547-1.415-4.527v-39.2c0-.566-.566-.847-.847-.847h-9.934c-.566 0-.848.281-.848.847V41.84c0 5.094 1.13 9.906 4.239 13.066 3.105 3.114 7.343 4.809 12.195 4.809 5.082 0 9.367-1.695 12.191-4.809 3.11-3.113 4.239-7.644 4.239-13.066V2.355c.28-.28-.282-.847-.895-.847" fill-rule="evenodd" fill="#f63440"/>
</svg>
