<svg xmlns="http://www.w3.org/2000/svg" width="80" height="80" viewBox="0 0 60 60">
  <path d="M60 29.969c.008-8.012-3.102-15.54-8.762-21.196C45.586 3.121 38.07.012 30.066.012h-.035C22.02.023 14.484 3.148 8.81 8.82l-.082.082c-.004.008-.012.012-.02.02-.012.012-.02.023-.031.035C3.09 14.609.008 22.086 0 30.031c-.008 7.98 3.082 15.48 8.7 21.133.007.004.01.012.015.016.004.004.008.008.012.008a.352.352 0 00.035.039c5.652 5.652 13.168 8.761 21.172 8.761h.035c7.949-.011 15.426-3.09 21.082-8.672.011-.011.023-.02.035-.03.008-.009.012-.016.02-.024.027-.028.054-.055.085-.082 5.672-5.668 8.801-13.203 8.809-21.211zM49.809 47.527l-7.16-7.156c4.828-5.98 4.843-14.582.042-20.574l7.262-7.262c4.234 4.824 6.543 10.945 6.535 17.43a26.348 26.348 0 01-6.68 17.562zm-29.102-8.332c-5.043-5.039-5.043-13.238 0-18.277a12.892 12.892 0 019.14-3.781 12.9 12.9 0 019.145 3.781c5.04 5.039 5.04 13.238 0 18.277-5.043 5.04-13.246 5.04-18.285 0zm9.328-35.672h.031c6.473 0 12.586 2.309 17.403 6.532l-7.25 7.246a16.324 16.324 0 00-10.371-3.68c-3.801 0-7.403 1.281-10.317 3.637l-7.066-7.059c4.855-4.308 11.031-6.668 17.57-6.676zM9.996 12.695l7.05 7.047c-4.843 5.996-4.843 14.63 0 20.63L10 47.41c-4.203-4.812-6.496-10.914-6.488-17.375.008-6.437 2.297-12.523 6.484-17.34zm19.969 43.782h-.031c-6.497 0-12.633-2.325-17.454-6.579l7.051-7.046a16.303 16.303 0 0010.317 3.64c3.8 0 7.406-1.281 10.32-3.64l7.145 7.144c-4.82 4.184-10.91 6.473-17.348 6.48zm0 0"/>
</svg>
