<svg xmlns="http://www.w3.org/2000/svg" width="80" height="80" viewBox="0 0 60 60"><path d="M43.707 14.32h7.79l-11.9-12.484v8.39a4.086 4.086 0 004.11 4.094zm0 0"/><path d="M37.059 10.227V-.117H12.688c-3.16 0-5.778 2.601-5.778 5.758V54.1c0 3.157 2.617 5.758 5.777 5.758H47.47c3.156 0 5.773-2.601 5.773-5.757V16.859h-9.535a6.63 6.63 0 01-6.648-6.632zM19.922 30.902a1.274 1.274 0 011.793.063l7.094 7.617V20.461c0-.695.57-1.27 1.27-1.27.694 0 1.269.575 1.269 1.27v18.137l7.09-7.618a1.274 1.274 0 011.792-.062c.508.477.54 1.285.067 1.793l-9.3 9.98a1.296 1.296 0 01-1.871 0l-9.298-9.98a1.325 1.325 0 01.094-1.809zM44.406 50.18c0 .699-.574 1.27-1.27 1.27H17.02c-.7 0-1.27-.571-1.27-1.27 0-.7.57-1.27 1.27-1.27h26.132c.696 0 1.254.574 1.254 1.27zm0 0"/></svg>