<svg xmlns="http://www.w3.org/2000/svg" width="80" height="80" viewBox="0 0 60 60"><path d="M32.5 15c0 1.379-1.121 2.5-2.5 2.5a2.502 2.502 0 01-2.5-2.5c0-1.379 1.121-2.5 2.5-2.5s2.5 1.121 2.5 2.5zm0 0M30 47.5a1.875 1.875 0 01-1.875-1.875V26.25h-2.5a1.875 1.875 0 010-3.75H30c1.035 0 1.875.84 1.875 1.875v21.25c0 1.035-.84 1.875-1.875 1.875zm0 0"/><path d="M30 60C13.457 60 0 46.543 0 30S13.457 0 30 0s30 13.457 30 30-13.457 30-30 30zm0-56.25C15.523 3.75 3.75 15.523 3.75 30S15.523 56.25 30 56.25 56.25 44.477 56.25 30 44.477 3.75 30 3.75zm0 0"/><path d="M35.625 47.5h-11.25a1.875 1.875 0 010-3.75h11.25a1.875 1.875 0 010 3.75zm0 0"/></svg>