<svg xmlns="http://www.w3.org/2000/svg" width="80" height="80" viewBox="0 0 60 60">
  <path d="M51.21 0H8.79C3.94 0 0 3.941 0 8.79v42.42C0 56.06 3.941 60 8.79 60h42.42C56.06 60 60 56.059 60 51.21V8.79C60 3.94 56.059 0 51.21 0zM30.118 45.703c-8.722 0-15.82-7.098-15.82-15.82 0-8.723 7.098-15.82 15.82-15.82 8.723 0 15.82 7.097 15.82 15.82 0 8.722-7.097 15.82-15.82 15.82zm17.578-28.125a5.281 5.281 0 01-5.273-5.273 5.281 5.281 0 015.273-5.274 5.281 5.281 0 015.274 5.274 5.281 5.281 0 01-5.274 5.273zm0 0"/>
  <path d="M47.695 10.547a1.76 1.76 0 00-1.758 1.758c0 .968.79 1.758 1.758 1.758a1.76 1.76 0 001.758-1.758 1.76 1.76 0 00-1.758-1.758zm0 0M30.117 17.578c-6.785 0-12.305 5.52-12.305 12.305s5.52 12.305 12.305 12.305 12.305-5.52 12.305-12.305-5.52-12.305-12.305-12.305zm0 0"/>
</svg>
