<svg xmlns="http://www.w3.org/2000/svg" width="80" height="80" viewBox="0 0 60 60"><path d="M56.25 5.824H3.75A3.753 3.753 0 000 9.574v33.75c0 2.07 1.684 3.75 3.75 3.75h21.492c-.816-1.43-1.82-3.273-3.066-5.625H5.625v-30h48.75v30h-2.473v4.047c0 .129-.02.73-.156 1.578h4.504a3.756 3.756 0 003.75-3.75V9.574c0-2.07-1.684-3.75-3.75-3.75zm.918 22.5a1.875 1.875 0 110-3.75 1.875 1.875 0 010 3.75zm0 0"/><path d="M46.863 26.887h-.21c-1.231 0-2.231 1-2.231 2.226v1.989h-.274v-1.989a2.23 2.23 0 00-2.226-2.226h-.219a2.23 2.23 0 00-2.226 2.226v1.989h-.274v-1.989a2.23 2.23 0 00-2.226-2.226h-.22a2.23 2.23 0 00-2.226 2.226v1.989h-.144V18.39c0-1.239-1-2.243-2.239-2.243h-.218a2.238 2.238 0 00-2.235 2.243V37.84c-.597-.676-1.125-1.363-1.605-1.985-1.07-1.382-1.91-2.48-2.863-2.699-1.055-.25-2.028.102-2.497.864-.44.722-.375 1.718.184 2.8 1.219 2.328 7.074 12.575 7.078 12.575.465 1.12 2.508 4.78 9.387 4.78v-.245l.008.246c5.004 0 7.375-2.36 8.484-4.34 1.191-2.14 1.211-4.246 1.211-4.34V29.113a2.219 2.219 0 00-2.219-2.226zm0 0"/></svg>