<svg xmlns="http://www.w3.org/2000/svg" width="80" height="80" viewBox="0 0 60 60">
  <path d="M6.25 26.25A6.258 6.258 0 000 32.5v20a6.258 6.258 0 006.25 6.25h7.5a6.214 6.214 0 003.75-1.266V26.25zm0 0M60 35.625a5.526 5.526 0 00-1.629-3.934 6.204 6.204 0 001.602-4.773c-.293-3.18-3.157-5.668-6.52-5.668H38.012c.761-2.324 1.988-6.578 1.988-10 0-5.422-4.61-10-7.5-10-2.598 0-4.453 1.46-4.531 1.523a1.252 1.252 0 00-.469.977v8.477l-7.2 15.597-.3.153v26.796c2.035.961 4.61 1.477 6.25 1.477H49.2c2.722 0 5.1-1.836 5.663-4.367.285-1.305.121-2.617-.453-3.754a5.599 5.599 0 003.09-5.004c0-.887-.203-1.734-.586-2.5a5.594 5.594 0 003.086-5zm0 0"/>
</svg>
