<svg xmlns="http://www.w3.org/2000/svg" width="80" height="80" viewBox="0 0 60 60">
  <path d="M51.746 15.598C49.633 8.766 44.074 3.207 37.242 1.094 30.016-1.145 22.32.098 16.45 4.426c-5.828 4.297-9.304 11.176-9.304 18.41 0 4.988 1.578 9.727 4.562 13.703L30.004 60l18.293-23.465c4.469-5.953 5.726-13.586 3.45-20.937zM30.004 35.14c-6.79 0-12.309-5.52-12.309-12.309 0-6.785 5.52-12.305 12.309-12.305 6.785 0 12.308 5.52 12.308 12.305 0 6.79-5.523 12.309-12.308 12.309zm0 0"/>
  <path d="M30.004 14.066c-4.848 0-8.793 3.922-8.793 8.766 0 4.848 3.945 8.793 8.793 8.793 4.848 0 8.789-3.945 8.789-8.793 0-4.844-3.941-8.766-8.79-8.766zm0 0"/>
</svg>
