<svg xmlns="http://www.w3.org/2000/svg" width="80" height="80" viewBox="0 0 60 60"><path d="M49.336 7.734l6.328 14.063v37.031H43.008V21.797zm0 0" fill="#ffcb7c"/><path d="M43.008 58.828l6.328-6.328 6.328 6.328zm0 0" fill="#ffc15a"/><path d="M46.992 1.172H13.008a2.346 2.346 0 00-2.344 2.344v4.218h38.672V3.516a2.346 2.346 0 00-2.344-2.344zm0 0" fill="#ffcb7c"/><path d="M4.336 21.797v37.031h38.672V21.797l6.328-14.063H10.664zm0 0" fill="#ffc15a"/><path d="M11.016 25.055h25.312v21.093H11.016zm0 0" fill="#dff6fc"/><path d="M56.734 21.316L50.508 7.484V3.516A3.52 3.52 0 0046.992 0H13.008a3.52 3.52 0 00-3.516 3.516v3.968L3.266 21.316a1.205 1.205 0 00-.102.48v37.032A1.17 1.17 0 004.336 60h51.328a1.17 1.17 0 001.172-1.172V21.797c0-.164-.035-.328-.102-.48zM54.492 56l-3.984-3.984V28.828a1.17 1.17 0 00-1.172-1.172 1.17 1.17 0 00-1.172 1.172v23.188L44.18 56V22.047l5.156-11.457 5.156 11.457zm-5.156-1.844l3.5 3.5h-7zm-37.5-50.64c0-.645.527-1.172 1.172-1.172h33.984c.645 0 1.172.527 1.172 1.172v3.046H11.836zm-6.328 18.53l5.914-13.14h36.101l-5.586 12.41a1.205 1.205 0 00-.101.48v35.86H5.508zm0 0"/><path d="M48.508 23.313c-.219.218-.344.519-.344.828a1.178 1.178 0 001.172 1.172 1.178 1.178 0 001.172-1.172 1.178 1.178 0 00-1.172-1.172c-.309 0-.61.125-.828.343zm0 0M36.328 23.883H11.016c-.649 0-1.172.527-1.172 1.172v21.093a1.17 1.17 0 001.172 1.172h25.312a1.17 1.17 0 001.172-1.172V25.055c0-.645-.523-1.172-1.172-1.172zm-6.812 2.344L12.188 43.555V26.227zm-15.438 18.75l18.75-18.75h2.328v3.093c-.023.02-.047.04-.066.063l-7.504 7.504a1.172 1.172 0 001.656 1.656l5.914-5.914v12.348zm0 0"/><path d="M25.098 39.855a1.178 1.178 0 00-1.172 1.172 1.17 1.17 0 001.172 1.172c.308 0 .613-.12.828-.344a1.17 1.17 0 00-.828-2zm0 0"/></svg>