<svg xmlns="http://www.w3.org/2000/svg" width="80" height="80" viewBox="0 0 60 60"><path d="M58.082 54.652L43.805 39.797a24.14 24.14 0 005.683-15.57C49.488 10.867 38.618 0 25.262 0 11.902 0 1.035 10.867 1.035 24.227c0 13.355 10.867 24.222 24.227 24.222 5.015 0 9.793-1.511 13.879-4.383l14.386 14.965c.602.625 1.41.969 2.278.969a3.159 3.159 0 002.277-5.348zM25.262 6.32c9.87 0 17.906 8.032 17.906 17.907 0 9.87-8.035 17.902-17.906 17.902-9.875 0-17.907-8.031-17.907-17.902 0-9.875 8.032-17.907 17.907-17.907zm0 0"/></svg>