<svg xmlns="http://www.w3.org/2000/svg" width="80" height="80" viewBox="0 0 60 60"><path d="M2.82 38.098h29.098c.371 0 .687-.301.68-.672-.059-2.102-.836-8.43-8.196-8.43H10.34c-7.344 0-8.137 6.328-8.195 8.43a.67.67 0 00.675.672zm23.29-4.035c.863 0 .863 1.343 0 1.343-.868 0-.868-1.343 0-1.343zm-3.981-2.684c.863 0 .863 1.344 0 1.344-.867 0-.867-1.344 0-1.344zm-4.758 0c.863 0 .863 1.344 0 1.344-.867 0-.867-1.344 0-1.344zm-3.832 2.55c.867 0 .867 1.34 0 1.34-.863 0-.863-1.34 0-1.34zm-3.086-2.82c.867 0 .867 1.344 0 1.344-.863 0-.863-1.344 0-1.344zm-3.355 2.82c.867 0 .867 1.34 0 1.34-.864 0-.864-1.34 0-1.34zm0 0M10.34 53.434h14.058c6.957 0 8.036-3.59 8.18-5.114.035-.367-.289-.672-.66-.672H2.82c-.37 0-.695.305-.656.672.148 1.524 1.234 5.114 8.176 5.114zm0 0M32.379 45.2a2.364 2.364 0 000-4.727H2.363a2.364 2.364 0 000 4.726zm0 0M59.297 15.879h-5.524l.672-2.664 1.395-5.531a.685.685 0 00-.485-.825l-1.12-.3a.657.657 0 00-.813.476l-1.531 6.18-.66 2.664H31.925c-.367 0-.668.3-.668.672v1.855c0 .371.297.672.668.672h1.383l4.773 33.692c.05.367.395.664.766.664h13.511a.794.794 0 00.766-.664l4.793-33.692h1.379c.371 0 .672-.3.672-.672v-1.855c0-.371-.301-.672-.672-.672zm0 0"/></svg>