<svg xmlns="http://www.w3.org/2000/svg" width="80" height="80" viewBox="0 0 60 60">
  <g fill-rule="evenodd">
    <path d="M60 30c0 16.57-13.43 30-30 30S0 46.57 0 30 13.43 0 30 0s30 13.43 30 30zm0 0" fill="#efefef"/>
    <path d="M29.07 31.973a.69.69 0 01-.094-1.375c2.43-.16 4.829.543 6.782 2.011a.69.69 0 01.14.965.692.692 0 01-.968.137 8.79 8.79 0 00-5.86-1.738zm14.434 3.718a.69.69 0 111.383 0 3.222 3.222 0 01-3.219 3.22.69.69 0 110-1.383 1.839 1.839 0 001.836-1.837zm0 0" fill="#4c4c4c"/>
    <path d="M26.879 27.684c7.914-1.516 15.476 3.586 15.476 10.535 0 5.996-5.707 10.804-12.699 10.804-5.02 0-9.508-2.503-11.554-6.32h-2.989a.69.69 0 01-.687-.691v-5.059c0-.379.308-.687.687-.687h2.047c.567-2.63 2.266-4.965 4.727-6.586a3.727 3.727 0 00-1.742-2.278.69.69 0 010-1.195 5.102 5.102 0 016.734 1.477zM15.805 41.32h2.718c.266 0 .508.153.622.39 1.707 3.544 5.832 5.935 10.511 5.935 6.278 0 11.32-4.25 11.32-9.426 0-6.137-6.992-10.73-14.273-9.09a.685.685 0 01-.75-.332 3.733 3.733 0 00-4.09-1.805c.79.778 1.317 1.801 1.477 2.922a.69.69 0 01-.324.688c-2.54 1.535-4.211 3.867-4.598 6.453-.05.34-.34.59-.68.59h-1.933zm0 0" fill="#4c4c4c"/>
    <path d="M22.012 36.32c0 .035.023.059.058.059.032 0 .055-.024.055-.059a.053.053 0 00-.055-.054c-.03 0-.058.023-.058.054zm1.379 0c0 .73-.594 1.325-1.32 1.325-.731 0-1.325-.594-1.325-1.325 0-.726.594-1.32 1.324-1.32.727 0 1.32.594 1.32 1.32zm-.114 10.805a.689.689 0 011.38 0v3.45a.69.69 0 11-1.38 0zm11.38 0a.689.689 0 011.378 0v3.45a.69.69 0 11-1.379 0zm0 0M31.883 23.64a.688.688 0 01-1.219 0L24.22 11.466a.685.685 0 01.058-.738c.313-.418.903-1.008 1.778-1.594 1.453-.965 3.195-1.547 5.218-1.547 2.024 0 3.766.582 5.22 1.547.878.586 1.468 1.176 1.78 1.594.16.214.184.5.059.738zm5.008-12.402l-.059-.058a7.241 7.241 0 00-1.105-.899c-1.235-.82-2.715-1.316-4.454-1.316-1.734 0-3.218.496-4.453 1.316-.43.29-.797.594-1.101.899l-.059.058 5.613 10.606zm0 0" fill="#4c4c4c"/>
    <path d="M37.227 12.398a.691.691 0 01-.141.965.691.691 0 01-.965-.14c-.86-1.145-2.71-2.11-4.848-2.11-2.109 0-3.921.907-4.789 2.035a.691.691 0 01-1.097-.84c1.129-1.464 3.347-2.574 5.886-2.574 2.579 0 4.836 1.172 5.954 2.664zm0 0" fill="#4c4c4c"/>
    <path d="M33.926 12.574a1.1 1.1 0 10-2.2 0 1.1 1.1 0 102.2 0zm1.383 0a2.481 2.481 0 11-4.963-.002 2.481 2.481 0 014.963.002zm-8.075 2.48a.683.683 0 01-.972.048.69.69 0 01-.047-.973 2.479 2.479 0 014.316 1.668 2.483 2.483 0 01-2.133 2.457.694.694 0 01-.78-.586.694.694 0 01.589-.781 1.1 1.1 0 00-.156-2.191c-.317 0-.606.132-.817.359zm5.832 3.993a.69.69 0 010 1.379 2.481 2.481 0 010-4.96c.832-.001 1.598.417 2.055 1.093a.69.69 0 01-1.145.773 1.097 1.097 0 00-2.011.613 1.1 1.1 0 001.101 1.102zm0 0" fill="#4c4c4c"/>
  </g>
</svg>
