<svg xmlns="http://www.w3.org/2000/svg" width="80" height="80" viewBox="0 0 60 60"><path d="M45.0352 16.836c-1.3985-3.7813-3.3555-7.1485-5.8125-10.004C35.0586 1.996 30.7969.2266 30.457.0898c-.1875-.0742-.3906-.1054-.5937-.082a1.1692 1.1692 0 0 0-.3008.0742c-.004 0-.0156.004-.0156.0078-.2461.0977-4.461 1.8555-8.6758 6.7422-2.4805 2.875-4.4531 6.2461-5.8672 10.0235-1.7578 4.6914-2.6484 10.0234-2.6484 15.8437 0 9.832 1.6562 16.8281 5.0547 21.3828C20.3438 58.0078 24.5782 60 30 60c5.4219 0 9.6563-1.9922 12.5898-5.918 3.3985-4.5547 5.0547-11.5508 5.0547-21.3828 0-5.8437-.8789-11.1836-2.6093-15.8633zm-25.707 35.8163c-3.0391-4.0703-4.5821-10.7851-4.5821-19.953 0-12.418 4.2656-20.0157 7.8476-24.2032a27.8486 27.8486 0 0 1 1.457-1.5781c-2.5859 4.918-5.1484 13.0117-5.1484 25.7812 0 9.7383.9844 16.6602 3.0079 21.1602.3515.7812.7343 1.4922 1.1523 2.125-1.4375-.8047-2.6758-1.914-3.7344-3.332zm21.3437 0c-1.0586 1.418-2.2969 2.5274-3.7344 3.332.211-.3202.414-.66.6094-1.0195 1.9726-3.6484 3.0976-9.2148 3.4414-17.0234.0273-.6602-.4805-1.2187-1.1406-1.246a1.1883 1.1883 0 0 0-1.2461 1.1405C38.0234 50.957 35.1328 57.6094 30 57.6094c-5.7773 0-8.707-8.379-8.707-24.9102 0-12.4687 2.5625-20.1133 4.711-24.332 1.6796-3.2969 3.371-5.0586 4.1757-5.7813 1.2539.6172 4.2265 2.3203 7.2305 5.8047 3.578 4.1563 7.8437 11.75 7.8437 24.3086 0 9.168-1.543 15.8828-4.582 19.9531zm0 0"/><path d="M39.9023 31.504c-.6601 0-1.1953.535-1.1953 1.1952 0 .3008 0 .5977-.0039.8946-.0039.6601.5274 1.1953 1.1875 1.203h.0078c.6563 0 1.1914-.5312 1.1953-1.1874.004-.3008.004-.6016.004-.9102 0-.6601-.5352-1.1953-1.1954-1.1953zm0 0"/></svg>