<svg xmlns="http://www.w3.org/2000/svg" width="80" height="80" viewBox="0 0 60 60"><path d="M26.012 36.977c-.38-.27-1.055-.293-2.02-.075l-1.445.32.77 3.45 1.445-.317A4.36 4.36 0 0026 39.902c.316-.183.54-.43.648-.722.122-.293.133-.649.047-1.067-.11-.511-.328-.89-.683-1.136zm0 0M16.398 40.43c-.39-.551-.843-.934-1.382-1.14a2.882 2.882 0 00-1.7-.11 2.86 2.86 0 00-1.14.527 2.647 2.647 0 00-.77.953c-.183.395-.308.86-.344 1.399-.039.55.012 1.136.16 1.773.145.637.34 1.211.61 1.691.27.489.578.868.934 1.149a2.75 2.75 0 001.125.55c.39.087.808.087 1.234-.011a2.89 2.89 0 001.422-.77c.39-.394.66-.933.797-1.605.133-.672.11-1.457-.098-2.352-.172-.82-.453-1.504-.848-2.054zm0 0"/><path d="M58.71 43.906L54.036 23.73c-.625-2.683-3.316-4.37-6-3.746l-6.5 1.504-12.66-11.886a6.646 6.646 0 00.492-4.422A6.701 6.701 0 0021.332.172a6.696 6.696 0 00-5.004 8.035 6.605 6.605 0 002.387 3.746l-5.031 13.344 4.699-1.09 4.09-10.836c.625.04 1.25-.012 1.886-.16a6.48 6.48 0 001.762-.684L36.81 22.578 5.039 29.95c-2.684.625-4.371 3.317-3.746 6l4.676 20.176c.625 2.68 3.316 4.371 6 3.746l42.984-9.965c2.692-.625 4.371-3.332 3.758-6zM23.528 9.602c-1.605.367-3.222-.625-3.59-2.243a2.99 2.99 0 012.243-3.586c1.601-.367 3.218.625 3.586 2.239a2.978 2.978 0 01-2.239 3.59zM19.633 44.48a5.335 5.335 0 01-.59 2.083 4.364 4.364 0 01-1.371 1.566c-.586.418-1.297.723-2.129.906-.832.184-1.605.207-2.324.074a4.415 4.415 0 01-1.91-.843 5.213 5.213 0 01-1.41-1.657 7.961 7.961 0 01-.856-2.289c-.195-.867-.258-1.687-.184-2.472.075-.77.27-1.47.598-2.082a4.542 4.542 0 011.36-1.528c.578-.418 1.273-.71 2.081-.894 1.102-.246 2.094-.223 2.989.086a4.64 4.64 0 012.238 1.629c.602.78 1.031 1.773 1.3 2.949.208.883.282 1.703.208 2.472zm8.812-4.078c-.535.75-1.457 1.262-2.777 1.555l-1.973.441.711 3.196c.098.453.074.832-.074 1.117a.993.993 0 01-.684.523c-.32.075-.613.012-.859-.172-.242-.183-.426-.511-.523-.964l-1.938-8.707c-.11-.5-.082-.88.086-1.149.172-.27.492-.453.969-.55l2.754-.614c.82-.183 1.457-.258 1.922-.219.464.036.882.157 1.261.391.38.23.7.54.97.93.257.39.452.86.573 1.41.258 1.125.121 2.078-.418 2.812zm11.84 2.66c-.133.208-.367.34-.71.415l-5.84 1.296c-.465.114-.833.075-1.075-.109-.258-.172-.441-.516-.55-1.004l-1.887-8.496c-.075-.332-.086-.613-.04-.832a.912.912 0 01.333-.55c.172-.137.418-.247.722-.31l5.668-1.257c.344-.074.614-.05.82.07.208.125.333.32.391.578.063.27.028.5-.11.696-.132.199-.366.332-.71.418l-4.836 1.078.613 2.777 4.457-.992c.332-.07.586-.047.785.074.196.125.317.309.38.563a.895.895 0 01-.098.687c-.125.195-.356.328-.688.402l-4.457.993.711 3.218 5.008-1.113c.344-.074.613-.047.82.086a.919.919 0 01.403.613c.062.258.027.5-.11.7zm9.809-1.714a1.386 1.386 0 01-1.043-.16 3.19 3.19 0 01-.477-.368c-.16-.148-.304-.293-.465-.453l-5.496-5.68 1.469 6.622c.098.43.074.785-.062 1.043a.918.918 0 01-.649.488.904.904 0 01-.809-.172c-.23-.184-.39-.488-.488-.918l-1.933-8.715c-.086-.367-.114-.676-.075-.894.036-.258.145-.477.329-.676.183-.195.394-.317.636-.367.2-.047.367-.047.516-.012.148.039.293.098.418.184.133.085.27.21.414.367.148.16.309.32.465.492l5.61 5.742-1.497-6.723c-.098-.441-.086-.785.05-1.039.122-.257.345-.418.638-.492a.936.936 0 01.808.16c.23.184.39.489.488.918l1.985 8.887c.207 1.02-.063 1.594-.832 1.766zm0 0"/></svg>