<svg xmlns="http://www.w3.org/2000/svg" width="80" height="80" viewBox="0 0 60 60">
  <path d="M41.25 30h-22.5c-.691 0-1.25-.559-1.25-1.25s.559-1.25 1.25-1.25h22.5c.691 0 1.25.559 1.25 1.25S41.941 30 41.25 30zm0 0M38.75 37.5h-20c-.691 0-1.25-.559-1.25-1.25S18.059 35 18.75 35h20c.691 0 1.25.559 1.25 1.25s-.559 1.25-1.25 1.25zm0 0M33.75 45h-15c-.691 0-1.25-.559-1.25-1.25s.559-1.25 1.25-1.25h15c.691 0 1.25.559 1.25 1.25S34.441 45 33.75 45zm0 0"/>
  <path d="M50 7.5H39.648A9.961 9.961 0 0030 0a9.961 9.961 0 00-9.648 7.5H10A2.502 2.502 0 007.5 10v42.5c0 1.379 1.121 2.5 2.5 2.5h40c1.379 0 2.5-1.121 2.5-2.5V10c0-1.379-1.121-2.5-2.5-2.5zm-25 5h.691A4.946 4.946 0 0125 10a5 5 0 1110 0 4.946 4.946 0 01-.691 2.5H35a5 5 0 015 5H20a5 5 0 015-5zM47.5 50h-35V12.5h3.852a9.911 9.911 0 00-1.352 5v5h30v-5c0-1.758-.465-3.48-1.352-5H47.5zm0 0"/>
  <path d="M31.25 8.75c0 .691-.559 1.25-1.25 1.25s-1.25-.559-1.25-1.25S29.309 7.5 30 7.5s1.25.559 1.25 1.25zm0 0"/>
</svg>
