<svg xmlns="http://www.w3.org/2000/svg" width="80" height="80" viewBox="0 0 60 60">
  <path d="M49.336 3.633H60v7.031H49.336zm0 0M0 3.633h45.82v7.031H0zm0 0M28.242 33.516H17.695a5.281 5.281 0 005.274 5.273 5.281 5.281 0 005.273-5.273zm0 0M38.79 30v12.305h3.515V25.027A5.282 5.282 0 0038.789 30zm0 0"/>
  <path d="M0 56.367h21.21V42.125c-4.007-.816-7.03-4.367-7.03-8.61V21.212h3.515V30h3.516v-8.79h3.516V30h3.515v-8.79h3.516v12.306c0 4.242-3.024 7.793-7.031 8.609v14.242h17.578V45.82h-7.032V30c0-4.848 3.942-8.79 8.79-8.79h1.757v35.157H60V14.18H0zm0 0"/>
</svg>
