<svg xmlns="http://www.w3.org/2000/svg" width="80" height="80" viewBox="0 0 60 60"><path d="M41.625 37.508a7.875 7.875 0 10-15.75-.008H3.75C1.68 37.5 0 35.953 0 34.04V10.96C0 9.048 1.68 7.5 3.75 7.5h45.008c2.074 0 3.75 1.547 3.75 3.46v26.552zM26.273 15a7.512 7.512 0 10-.023 15.024A7.512 7.512 0 0026.273 15zm0 0" fill="#a3acb9"/><path d="M56.25 52.5h-45c-2.07 0-3.75-1.547-3.75-3.46V25.96c0-1.913 1.68-3.46 3.75-3.46h45c2.07 0 3.75 1.547 3.75 3.46v23.08c0 1.913-1.68 3.46-3.75 3.46zM33.773 30a7.512 7.512 0 10-.023 15.024A7.512 7.512 0 0033.773 30zm0 0"/></svg>