<svg xmlns="http://www.w3.org/2000/svg" width="80" height="80" viewBox="0 0 60 60"><path d="M45.617 39.691c-1.96-1.933-4.41-1.933-6.355 0a339.783 339.783 0 0 0-4.434 4.446c-.398.41-.734.5-1.223.222-.96-.523-1.984-.949-2.91-1.523-4.308-2.707-7.914-6.191-11.113-10.113-1.582-1.946-2.996-4.032-3.98-6.38-.2-.472-.165-.784.222-1.171 1.489-1.438 2.938-2.91 4.395-4.383 2.035-2.047 2.035-4.445-.012-6.504-1.16-1.176-2.32-2.324-3.48-3.496-1.2-1.2-2.387-2.41-3.598-3.598-1.961-1.91-4.406-1.91-6.356.012-1.496 1.473-2.933 2.984-4.457 4.434C.906 12.973.196 14.609.043 16.52c-.234 3.109.527 6.043 1.598 8.902 2.199 5.918 5.546 11.172 9.601 15.992 5.485 6.516 12.024 11.676 19.68 15.395 3.445 1.671 7.015 2.96 10.898 3.171 2.672.149 4.996-.523 6.856-2.609 1.273-1.426 2.707-2.723 4.058-4.082 1.996-2.023 2.008-4.473.024-6.469a2047.775 2047.775 0 0 0-7.14-7.129zm0 0M43.23 29.742l4.61-.789c-.727-4.23-2.723-8.066-5.758-11.113a20.488 20.488 0 0 0-11.734-5.856l-.653 4.633a15.891 15.891 0 0 1 9.09 4.531 15.894 15.894 0 0 1 4.445 8.594zm0 0M50.434 9.715C45.117 4.395 38.387 1.035 30.957 0l-.648 4.633c6.418.898 12.234 3.808 16.832 8.39 4.355 4.356 7.214 9.864 8.25 15.918L60 28.156c-1.21-7.02-4.52-13.386-9.566-18.441zm0 0"/></svg>