<svg xmlns="http://www.w3.org/2000/svg" width="206pt" height="80" viewBox="0 0 206 60"><g fill="#1e252b"><path d="M102.625 29.332c-.238.613-.574 1.11-1 1.488a3.989 3.989 0 01-1.531.832 6.767 6.767 0 01-1.938.27h-1.27v5.36H93.45V22.507h4.977a6.399 6.399 0 011.824.242 3.787 3.787 0 011.441.781c.403.375.75.832.957 1.414.211.586.352 1.305.352 2.168 0 .871-.121 1.614-.363 2.223m-3.465-3.563c-.223-.273-.574-.414-1.07-.414h-1.2v3.676h1.141c.504 0 .875-.14 1.125-.422.246-.281.348-.758.348-1.433 0-.66-.114-1.13-.329-1.407m16.735 7.5c-.234.938-.586 1.75-1.043 2.375a4.41 4.41 0 01-1.676 1.407c-.66.312-1.406.465-2.234.465-1.66 0-2.95-.618-3.871-1.848-.918-1.234-1.38-3.152-1.38-5.754 0-2.598.47-4.527 1.403-5.773.93-1.247 2.23-1.872 3.887-1.872 1.66 0 2.957.622 3.883 1.864.925 1.238 1.39 3.148 1.39 5.734 0 1.309-.12 2.442-.36 3.399m-3.37-5.583c-.074-.593-.18-1.07-.317-1.421-.14-.348-.32-.606-.527-.754a1.195 1.195 0 00-.715-.223c-.281 0-.527.07-.75.211-.226.14-.375.383-.515.75-.145.367-.243.816-.309 1.41-.07.738-.102 1.48-.094 2.227l.102 2.222c.074.598.18 1.07.32 1.422.14.356.313.606.516.754.21.153.468.23.73.223.266 0 .504-.074.715-.211.211-.14.383-.387.52-.75.132-.367.23-.817.304-1.406.07-.594.106-1.34.106-2.25l-.106-2.23m15.617 7.355a3.8 3.8 0 01-1 1.363 4.745 4.745 0 01-1.5.844 5.902 5.902 0 01-1.91.297 6.002 6.002 0 01-1.558-.188c-.465-.129-.89-.281-1.274-.508-.39-.226-.746-.5-1.066-.816a9.444 9.444 0 01-.95-1.086l2.407-2.176c.492.59.941 1.04 1.348 1.34.41.305.793.457 1.16.457.37 0 .672-.094.91-.29.238-.19.375-.487.375-.894 0-.214-.02-.402-.063-.57a1.329 1.329 0 00-.261-.496 2.545 2.545 0 00-.57-.488c-.321-.2-.657-.375-1-.516-.75-.32-1.356-.64-1.868-.96-.512-.321-.93-.657-1.242-1.024a3.396 3.396 0 01-.688-1.211 5.088 5.088 0 01-.21-1.532 4.483 4.483 0 01.316-1.69c.21-.52.512-.974.906-1.36a4.623 4.623 0 011.442-.938 5.141 5.141 0 011.906-.34c.562 0 1.07.051 1.508.153.441.097.843.25 1.199.453.355.207.7.457 1.008.738.332.313.64.649.922 1.004l-2.446 2.191-.652-.75c-.188-.199-.36-.367-.527-.492a1.507 1.507 0 00-.516-.265 2.386 2.386 0 00-.598-.075c-.336 0-.597.106-.781.317-.18.215-.273.457-.273.738a1.31 1.31 0 00.379.984c.14.149.332.29.57.43.3.172.61.328.926.465.746.324 1.375.652 1.89.984.516.328.93.692 1.254 1.086.317.383.559.825.707 1.297a5.45 5.45 0 01.227 1.637 4.61 4.61 0 01-.36 1.848m12.29-12.47v3.083h-3v11.695h-3.528V25.59h-2.996v-3.082zm11.769 14.813v-3.273l.023-2.25.067-2.016-.285.98-.348 1.118-.375 1.152-.371 1.078-1.39 3.692-1.395-3.692-.368-1.066-.386-1.164-.348-1.117-.281-.98.058 2.003.02 2.281v3.254h-3.184V22.508h3.184l1.305 3.633.867 2.543.527 1.996.547-1.985.863-2.578 1.286-3.61h3.183v14.774zm13.828 0l-.547-2.746h-2.91l-.527 2.746h-3.63l3.817-14.812h3.63l3.792 14.773zm-1.219-6.101l-.476-2.672-.328-2.25-.305 2.25-.563 3.156h1.75zm15.43-8.676v3.082h-2.992v11.691h-3.52V25.625h-2.996v-3.086zm11.832 0v3h-5.148v2.512h3.37v3h-3.37v3.187h5.289v3h-8.793V22.461zm0 0M204.324 35.008a3.788 3.788 0 01-1 1.363 4.822 4.822 0 01-1.5.844c-.613.2-1.258.3-1.906.293a5.852 5.852 0 01-1.559-.188 4.763 4.763 0 01-1.277-.504c-.39-.226-.742-.5-1.062-.816a9.607 9.607 0 01-.946-1.086l2.403-2.176c.488.59.941 1.04 1.347 1.34.406.3.793.453 1.156.453.364 0 .668-.093.91-.285.243-.195.376-.488.376-.898 0-.192-.02-.383-.067-.57a1.14 1.14 0 00-.262-.493c-.128-.164-.324-.324-.566-.488a5.416 5.416 0 00-1.004-.52 13.603 13.603 0 01-1.863-.957c-.512-.32-.93-.656-1.246-1.023-.317-.371-.563-.75-.684-1.215a5.774 5.774 0 01-.215-1.531 4.526 4.526 0 01.317-1.688c.21-.52.515-.976.906-1.363.418-.398.91-.71 1.45-.914.566-.227 1.202-.34 1.905-.34a7.005 7.005 0 011.508.152c.442.098.84.247 1.196.454.355.207.699.453 1.004.738.332.316.64.648.93 1.004l-2.45 2.191-.652-.75a3.697 3.697 0 00-.528-.492 1.804 1.804 0 00-.515-.266 2.386 2.386 0 00-.598-.074c-.336 0-.602.106-.781.32-.184.211-.274.454-.274.735 0 .199.028.375.086.531.067.168.168.324.293.453.14.153.332.293.567.434.304.172.613.324.93.465.745.32 1.374.648 1.886.98.473.293.899.66 1.258 1.086.32.375.558.824.703 1.297.145.473.227 1.02.227 1.637-.004.691-.122 1.308-.364 1.847M79.695 23.618a10.789 10.789 0 00-10.86-4.278c-1.495.3-2.913.918-4.155 1.812-.578.414-1.094.88-1.563 1.38l-3.191-2.466c.914-.34 3.758-1.484 2.582-2.105-.317-.188-.961-.281-1.793-.34l6.867-6-1.934-3.773-6.375 5.726s-.007-.008-.628.559l-.012.012h-.008a17.463 17.463 0 00-3.328.125v-.004c-1.43.257-2.621.445-3.215.328-2.094-.406-2.59-2.637-3.539-3.93-.54-.734-1.621-.82-1.715-1.453.29-.05.57-.14.836-.262 1.148-.55 1.547-1.066 1.86-1.761.394-.887-.028-2.34-.618-3.563.477-.344 2.254-1.734 2.184-1.973-.024-.09-2.238.22-3.168.399a2.13 2.13 0 00-.375-.375c-.758-.559-1.379-1.125-3.168-.38-3.063 1.282-2.902 3.673-1.887 5.798.469.988 1.285 1.605 2.18 1.918l-.137.261.086-.214c-4.832 4.363-16.11 11.71-19.101 11.859 2.46.96 9.539 1.09 12.503-.68-.832 3.375-.882 6.739.547 8.399-1.097.816-2.23 1.695-2.777 2.25-.434.418-.3.633.066 1.125 0 0 2.871.054 3.723-.758.23-.215.43-.41.61-.598l3.988 2.801-.375 4.008a10.644 10.644 0 00-6.18 2.016c-4.816 3.468-5.922 10.21-2.46 15.035a10.774 10.774 0 0010.858 4.277c1.504-.3 2.903-.91 4.157-1.813a10.792 10.792 0 003.148-13.933l.785-.504c.793.434 1.793.41 2.575-.152a2.397 2.397 0 00.933-2.438l3.461-1.047c1.305-.386 1.5-.781 1.176-1.426-.442-.882-3.746-.085-4.176-.562l-.937-2.113 1.812-13.274 3.055 2.274a10.792 10.792 0 00.113 12.39 10.774 10.774 0 0010.86 4.278c1.5-.301 2.917-.918 4.16-1.813 4.816-3.469 5.925-10.21 2.464-15.035m-27.976-6.926c1.59.14 3.226.008 4.668-.215l.523 1.164a33.496 33.496 0 00-3.355.368c-.836.136-3.016-2.024-1.84-1.317M41.21 29.762c.34-.004.684-.04 1.02-.102 2.093-.2 4.18-.469 6.253-.8l-3.644 3.468zm9.367-.79c-.781 2.712-1.562 4.614-2.07 5.954l-2.395-1.696zM45.141 39.75a8.606 8.606 0 015.539 3.219l-6.211 4.011zm3.785 15.473a8.484 8.484 0 01-3.313 1.449 8.61 8.61 0 01-8.66-3.41 8.608 8.608 0 011.965-11.989 8.427 8.427 0 014.707-1.609l-.816 8.738a.76.76 0 00.363.723c.164.102.36.137.547.098a.769.769 0 00.261-.106l7.528-4.863c1.965 3.75.937 8.441-2.578 10.969m3.59-13.446a10.756 10.756 0 00-7.172-4.199l.285-3.082 2.441 1.723c-.27.98-.156 1.5.64 1.82l4.266 1.652.024.02c-.176.55-.16 1.16.082 1.687zm2.71-3.75c-.367.016-.722.11-1.042.282-.188-.215-.47-.43-.985-.762-.375-.254-2.164-1.317-2.098-1.54.258-.773.836-1.925 1.672-3.554.88.969 1.762 2.621 2.63 4.29zm.805-5.914l-1.941-4.5c.058-.71.023-1.351-.137-1.883l3.367-3.23zm-2.992-7.601c-2.055-1.5-6.3-.75-9.063-.305.938-1.98 2.598-4.027 3.153-6.414.297 1.504 5.242 3.215 5.242 3.215s2.258-.5 4.207-1.266c.016.02.043.04.063.055l.746.555zM75.93 36.898a8.526 8.526 0 01-3.317 1.45 8.604 8.604 0 01-8.664-3.414c-2.148-3-2.058-6.922-.129-9.817l6.914 5.137a.633.633 0 00.465.125c.18-.02.34-.11.453-.25a.662.662 0 00-.129-.918l-6.718-5.3c.34-.356.71-.68 1.113-.966a8.403 8.403 0 013.312-1.449 8.607 8.607 0 018.66 3.41c2.758 3.856 1.88 9.219-1.96 11.992M23.719 31.5l-2.106-3.75-.5 4.27-4.21.843 3.902 1.797-.5 4.27 2.91-3.164 3.906 1.797-2.101-3.75 2.91-3.165zm-1.887 18.094l-2.102-3.75-.5 4.27-4.214.843 3.906 1.797-.5 4.273 2.91-3.164 3.906 1.797-2.105-3.75 2.91-3.156zM7.754 43.129l-2.106-3.75-.5 4.277-4.21.844 3.902 1.793-.5 4.273 2.914-3.164 3.902 1.797-2.101-3.75 2.91-3.16zM54.87 13.258a34.48 34.48 0 013.48.015l6.477-5.812-2.844-.285-7.144 6.086"/></g></svg>