<svg xmlns="http://www.w3.org/2000/svg" width="80" height="80" viewBox="0 0 60 60">
  <path d="M38.668 46.855H21.332c-1.102 0-2 .895-2 2 0 1.106.898 2 2 2h17.336c1.102 0 2-.894 2-2 0-1.105-.898-2-2-2zm0 0M38.668 40.547H21.332c-1.102 0-2 .894-2 2 0 1.105.898 2 2 2h17.336c1.102 0 2-.895 2-2 0-1.106-.898-2-2-2zm0 0"/>
  <path d="M55.332 15.691h-6.363V4.117c0-1.105-.895-2-2-2H13.03c-1.105 0-2 .895-2 2v11.574H4.668A4.673 4.673 0 0 0 0 20.36V40.48a4.673 4.673 0 0 0 4.668 4.668h6.363v10.735c0 1.105.895 2 2 2H46.97c1.105 0 2-.895 2-2V45.148h6.363A4.673 4.673 0 0 0 60 40.48V20.36a4.673 4.673 0 0 0-4.668-4.669zm-40.3-9.574h29.937v9.574H15.03zm29.937 47.766H15.03V37.52H44.97v16.363zm2-26.446h-5.09a1.999 1.999 0 1 1 0-4h5.09a1.999 1.999 0 1 1 0 4zm0 0"/>
</svg>
