<svg xmlns="http://www.w3.org/2000/svg" width="80" height="80" viewBox="0 0 60 60">
  <path d="M32.867 59.832c12.04-1.348 21.684-10.969 23.055-23.004C57.727 21.09 45.492 7.691 30.16 7.52V.46c0-.39-.488-.6-.82-.355L14.805 10.781a.446.446 0 000 .723L29.34 22.18c.332.246.82.023.82-.356v-7.047c10.774.172 19.402 9.34 18.668 20.297-.625 9.426-8.312 17.074-17.734 17.672-9.992.64-18.485-6.496-20.004-15.934-.281-1.75-1.817-3.027-3.578-3.027-2.196 0-3.91 1.95-3.567 4.121 2.133 13.446 14.547 23.532 28.922 21.926zm0 0"/>
</svg>
