<svg xmlns="http://www.w3.org/2000/svg" width="80" height="80" viewBox="0 0 60 60"><path d="M59.8398 30.6406C54.8438 21.6953 46.629 16.2266 37 15.211c-4.8281-6.0976-19.9766-7.6406-20.629-7.703-.4257-.047-.8554.1405-1.117.4882-.2618.3437-.3243.8008-.168 1.2031 1.4843 3.8555 3.0038 8.2383 3.4062 10.0352-2.75 1.2578-5.1524 2.5976-6.7031 3.711C8.4258 17.5663 1.5625 17.5 1.25 17.5c-.6914 0-1.25.5586-1.25 1.25 0 7.2422 2.5234 10.879 4.211 12.5C2.5233 32.871 0 36.5078 0 43.75 0 44.4414.5586 45 1.25 45c.3125 0 7.1758-.0664 10.539-5.4453 2.0587 1.4805 5.6212 3.3555 9.5118 4.914C20.4414 45.8595 20 48.0703 20 51.25c0 .6914.5586 1.25 1.25 1.25.371 0 8.871-.0742 13.1055-5.039 10.7656-.207 20.0351-5.8477 25.4843-15.6016a1.2328 1.2328 0 0 0 0-1.2188zM18.1523 10.2422c4.1993.6094 11.0977 2.1055 14.9922 4.7812-3.5937.1407-8.1758 1.5-12.332 3.207-.5547-2.1991-1.7813-5.6327-2.6602-7.9882zm4.379 39.6875c.164-3.4805.9687-4.3672 1.1914-4.5508 2.4375.8555 4.9062 1.5352 7.1445 1.879-2.711 1.9062-6.4063 2.5-8.336 2.6718zm1.0468-4.5938v-.0039c.004 0 .0078 0 .0117.004-.0078-.004-.0039 0-.0117 0zM33.75 45c-7.3047 0-19.246-5.996-21.461-8.2617-.2343-.2422-.5585-.375-.8906-.375-.078 0-.1562.0078-.2304.0195-.4102.0781-.754.3516-.918.7344-1.6875 3.914-5.6563 4.9805-7.7188 5.2734.3907-7.832 4.1016-9.9258 4.2891-10.0273.414-.211.668-.6367.6719-1.1016.0078-.4687-.2578-.9023-.668-1.121-.168-.09-3.8984-2.168-4.293-10.0235 2.0625.3008 6.043 1.3867 7.7188 5.2656.164.3828.5078.6563.918.7344.414.0742.832-.0586 1.121-.3555C14.504 23.4961 26.4454 17.5 33.75 17.5c9.871 0 18.418 5 23.5586 13.75C52.168 40 43.621 45 33.75 45zm0 0"/><path d="M37.5 31.25c0-5.754 2.2695-9.2734 2.293-9.3086.3789-.5781.2187-1.3516-.3555-1.7344-.5742-.375-1.3477-.2226-1.7266.3477C37.5977 20.7227 35 24.6953 35 31.25c0 6.5508 2.5977 10.5273 2.711 10.6914.2382.3633.6367.5586 1.039.5586.2383 0 .4805-.0664.6953-.211.5742-.3828.7266-1.1562.3438-1.7304-.0235-.0352-2.2891-3.504-2.2891-9.3086zm0 0M34.4375 20.207c-.5742-.375-1.3438-.2226-1.7266.3477C32.5977 20.7227 30 24.6953 30 31.25c0 3.5.754 6.25 1.3867 7.9414.1875.5.664.8125 1.1719.8125.1445 0 .293-.0273.4375-.082a1.2492 1.2492 0 0 0 .7344-1.6094C33.168 36.8165 32.5 34.375 32.5 31.25c0-5.754 2.2695-9.2734 2.293-9.3125.3789-.5742.2187-1.3477-.3555-1.7305zm0 0M45 30c1.3828 0 2.5-1.121 2.5-2.5 0-1.3828-1.1172-2.5-2.5-2.5-1.379 0-2.5 1.1172-2.5 2.5 0 1.379 1.121 2.5 2.5 2.5zm0 0"/></svg>