<svg xmlns="http://www.w3.org/2000/svg" width="83pt" height="100pt" viewBox="0 0 83 100"><g fill-rule="evenodd"><path d="M34.8 86.105c0 10.18-5.335 11.918-11.913 11.918-6.582 0-11.918-1.738-11.918-11.918 0-16.8 11.918-22.703 11.918-22.703S34.8 69.305 34.8 86.105zm0 0M13.895 47.664c-10.18 0-11.918-5.332-11.918-11.914s1.738-11.914 11.918-11.914c16.8 0 22.703 11.914 22.703 11.914s-5.903 11.914-22.703 11.914zm0 0M54.133 24.047c-7.2-7.195-4.656-12.2 0-16.852 4.652-4.652 9.652-7.195 16.847 0 11.883 11.883 7.633 24.48 7.633 24.48s-12.601 4.25-24.48-7.628zm0 0M71.672 58.281c7.195 7.2 4.652 12.2 0 16.852-4.652 4.652-9.652 7.195-16.852 0-11.879-11.88-7.629-24.48-7.629-24.48s12.598-4.25 24.48 7.628zm0 0" fill="#c69c6d"/><path d="M13.23 97.434c2.88 2.273 6.672 2.566 9.657 2.566 2.98 0 6.773-.293 9.652-2.566 2.852-2.258 4.238-5.965 4.238-11.329 0-9.27-3.488-15.402-6.414-18.918-3.21-3.851-6.465-5.488-6.601-5.558a1.978 1.978 0 0 0-1.754 0c-.137.07-3.39 1.707-6.602 5.559-2.926 3.515-6.414 9.648-6.414 18.917 0 5.364 1.387 9.07 4.238 11.329zm5.098-27.57c1.754-2.145 3.531-3.485 4.555-4.16 1.027.675 2.805 2.019 4.558 4.16 3.57 4.359 5.383 9.823 5.383 16.245 0 4.075-.898 6.762-2.742 8.223-1.496 1.184-3.719 1.715-7.195 1.715-3.48 0-5.703-.531-7.2-1.715-1.843-1.46-2.738-4.148-2.738-8.223 0-6.421 1.809-11.886 5.38-16.246zm0 0M2.566 45.402c2.258 2.852 5.965 4.239 11.329 4.239 9.27 0 15.402-3.489 18.918-6.414 3.851-3.211 5.488-6.461 5.558-6.598a1.986 1.986 0 0 0 0-1.758c-.07-.137-1.707-3.39-5.559-6.598-3.515-2.925-9.648-6.418-18.917-6.418-5.364 0-9.07 1.391-11.329 4.243C.293 28.973 0 32.766 0 35.75c0 2.984.293 6.777 2.566 9.652zm3.102-16.851c1.46-1.844 4.148-2.738 8.227-2.738 6.418 0 11.882 1.808 16.242 5.378 2.144 1.758 3.484 3.536 4.16 4.559-.676 1.027-2.02 2.8-4.16 4.555-4.36 3.574-9.825 5.383-16.242 5.383-4.079 0-6.766-.895-8.227-2.739-1.184-1.5-1.711-3.719-1.711-7.199s.527-5.7 1.711-7.2zm0 0M70.648 34.285c.825.078 1.61.11 2.344.11 3.703 0 6.133-.805 6.25-.844a1.975 1.975 0 0 0 1.242-1.242c.051-.145 1.192-3.602.739-8.598-.418-4.555-2.29-11.36-8.844-17.914-3.793-3.79-7.39-5.43-11.004-5.008-3.645.422-6.531 2.898-8.64 5.008-2.114 2.11-4.587 5-5.012 8.64-.422 3.618 1.218 7.215 5.011 11.008 6.555 6.555 13.36 8.426 17.914 8.84zM61.832 4.72c.203-.028.41-.04.621-.04 2.164 0 4.504 1.29 7.129 3.915 4.54 4.539 7.125 9.683 7.684 15.293.273 2.754-.036 4.96-.282 6.164-1.203.246-3.41.554-6.164.277-5.61-.558-10.754-3.14-15.289-7.68-2.883-2.882-4.152-5.418-3.879-7.753.22-1.895 1.418-3.84 3.88-6.301 2.456-2.461 4.402-3.656 6.3-3.875zm0 0M53.422 76.531c3.406 3.406 6.656 5.074 9.902 5.074.367 0 .735-.023 1.106-.066 3.64-.422 6.53-2.898 8.64-5.008 2.11-2.11 4.586-5 5.008-8.64.422-3.614-1.215-7.215-5.008-11.008-6.554-6.555-13.36-8.426-17.914-8.84-4.996-.457-8.453.687-8.597.734-.586.2-1.043.657-1.243 1.243-.046.144-1.191 3.605-.734 8.597.414 4.555 2.285 11.36 8.84 17.914zm-4.883-18.086c-.277-2.761.031-4.968.281-6.168 3.02-.629 12.43-1.617 21.453 7.403 2.88 2.883 4.149 5.418 3.875 7.754-.218 1.898-1.414 3.84-3.875 6.3-2.46 2.461-4.406 3.657-6.3 3.88-2.336.269-4.871-.997-7.754-3.88-4.54-4.539-7.121-9.683-7.68-15.289zm0 0"/><path d="M59.219 73.3c-.48 0-.961-.171-1.34-.523a15.136 15.136 0 0 1-.445-.43 1.976 1.976 0 0 1 0-2.796 1.976 1.976 0 0 1 2.796 0c.114.113.223.219.333.32a1.977 1.977 0 0 1-1.344 3.43zm0 0M64.395 75.063a1.978 1.978 0 0 1-.582-3.868c.656-.199 1.39-.722 2.308-1.644a1.976 1.976 0 0 1 2.797 0 1.976 1.976 0 0 1 0 2.797c-.875.879-2.238 2.105-3.941 2.629-.192.058-.391.085-.582.085zm0 0"/></g></svg>