<svg xmlns="http://www.w3.org/2000/svg" width="119pt" height="100pt" viewBox="0 0 119 100"><g fill-rule="evenodd"><path d="M108.77 53.617L68.477 93.961c-4.946 4.953-12.965 4.953-17.91 0L10.272 53.617C0 43.332 1.38 26.22 13.243 17.817 25.25 9.308 41.558 2.331 59.522 2.331c17.961 0 34.27 6.977 46.282 15.484 11.86 8.403 13.238 25.516 2.965 35.801zm0 0" fill="#4d4d4d"/><path d="M107.148 15.91c6.192 4.387 10.11 11.25 10.754 18.836a25.886 25.886 0 0 1-7.488 20.524L70.125 95.61A14.938 14.938 0 0 1 59.523 100c-3.84 0-7.68-1.465-10.605-4.39L8.628 55.27a25.886 25.886 0 0 1-7.487-20.524c.644-7.586 4.562-14.45 10.754-18.836C20.28 9.97 37.625 0 59.523 0c21.895 0 39.239 9.969 47.625 15.91zm-40.32 76.403l40.293-40.344a21.22 21.22 0 0 0 6.14-16.828 21.038 21.038 0 0 0-8.804-15.422C96.523 14.098 80.129 4.664 59.523 4.664c-20.609 0-37 9.434-44.937 15.055a21.034 21.034 0 0 0-8.8 15.422 21.099 21.099 0 0 0-.036 3.14c16.277-15.133 34.797-23.11 53.773-23.11 10.625 0 21.118 2.477 31.184 7.368a2.332 2.332 0 1 1-2.031 4.2c-9.43-4.583-19.239-6.903-29.153-6.903-18.59 0-36.8 8.258-52.714 23.883a21.25 21.25 0 0 0 5.113 8.25l40.293 40.343a10.3 10.3 0 0 0 7.308 3.024c2.645 0 5.293-1.008 7.305-3.023zm0 0"/><path d="M69.54 78.496a19.098 19.098 0 0 0-10.017-2.832c-3.546 0-7.011.98-10.02 2.832a2.334 2.334 0 0 0-.765 3.207 2.33 2.33 0 0 0 3.207.766 14.422 14.422 0 0 1 7.578-2.14c2.68 0 5.301.737 7.575 2.14a2.326 2.326 0 0 0 3.207-.766 2.334 2.334 0 0 0-.766-3.207zm0 0M101.008 28.484a67.564 67.564 0 0 0-1.516-.996 2.326 2.326 0 0 0-3.219.7 2.333 2.333 0 0 0 .7 3.222c.484.313.968.63 1.437.945a2.327 2.327 0 0 0 3.234-.637 2.336 2.336 0 0 0-.636-3.234zm0 0M59.406 70.766a2.332 2.332 0 0 0 2.328-2.332V29.477a2.332 2.332 0 0 0-2.328-2.332 2.333 2.333 0 0 0-2.332 2.332V68.43a2.334 2.334 0 0 0 2.332 2.336zm0 0M95.29 43.2L68.847 68.94a2.332 2.332 0 0 0 1.625 4.004c.582 0 1.168-.218 1.62-.66l26.442-25.738a2.333 2.333 0 0 0 .047-3.3 2.327 2.327 0 0 0-3.293-.048zm0 0M50.242 72.238a2.332 2.332 0 0 0-.047-3.297L23.754 43.2a2.327 2.327 0 0 0-3.293.047 2.333 2.333 0 0 0 .047 3.3l26.441 25.74a2.328 2.328 0 0 0 3.293-.047zm0 0"/></g></svg>