<svg xmlns="http://www.w3.org/2000/svg" width="80" height="80" viewBox="0 0 60 60">
  <path d="M30 19.809a6.454 6.454 0 00-6.445 6.445c0 2.945 1.984 5.433 4.687 6.203v20.05a1.758 1.758 0 003.516 0v-20.05c2.703-.77 4.687-3.258 4.687-6.203 0-3.55-2.89-6.445-6.445-6.445zm0 0M21.867 16.86a1.754 1.754 0 00-2.484 0c-5.453 5.449-5.453 14.269 0 19.718a1.754 1.754 0 002.484 0 1.754 1.754 0 000-2.484 10.424 10.424 0 010-14.75c.688-.688.688-1.801 0-2.485zm0 0M40.617 16.86a1.754 1.754 0 00-2.484 0 1.754 1.754 0 000 2.484c4.066 4.066 4.066 10.683 0 14.75a1.754 1.754 0 000 2.484c.687.688 1.8.688 2.484 0 5.438-5.437 5.438-14.285 0-19.719zm0 0"/>
  <path d="M16.563 14.04a1.754 1.754 0 000-2.485 1.754 1.754 0 00-2.485 0c-8.363 8.36-8.363 21.965 0 30.328.688.687 1.8.687 2.485 0 .687-.688.687-1.801 0-2.485-6.989-6.992-6.989-18.367 0-25.359zm0 0M45.922 11.555a1.754 1.754 0 00-2.484 0 1.754 1.754 0 000 2.484c6.988 6.992 6.988 18.367 0 25.36a1.754 1.754 0 000 2.484 1.754 1.754 0 002.484 0c8.363-8.363 8.363-21.969 0-30.328zm0 0"/>
  <path d="M11.262 8.738A1.759 1.759 0 108.774 6.25c-11.712 11.71-11.688 29.25 0 40.938a1.759 1.759 0 102.488-2.489c-10.254-10.25-10.254-25.71 0-35.96zm0 0M51.227 6.25a1.759 1.759 0 10-2.489 2.488c10.254 10.25 10.254 25.711 0 35.961a1.759 1.759 0 102.488 2.488c11.712-11.71 11.688-29.25 0-40.937zm0 0"/>
</svg>
