<svg xmlns="http://www.w3.org/2000/svg" width="59pt" height="17pt" viewBox="0 0 59 17"><g fill="#fff"><path d="M16.805 0l-.13.262a3.865 3.865 0 01-1.155 1.39 3.829 3.829 0 01-2.172.773H7.203A3.62 3.62 0 006 2.634a3.654 3.654 0 00-2.195 2.219 3.67 3.67 0 00-.203 1.214 3.647 3.647 0 00.656 2.094A3.63 3.63 0 006 9.496c.086.031.168.059.254.078.3.086.621.13.95.13h2.398c.664 0 1.199.542 1.199 1.214 0 .668-.535 1.21-1.2 1.21H7.204c-.351 0-.691-.026-1.023-.085-.063-.012-.121-.02-.18-.035a5.992 5.992 0 01-3.598-2.305A5.997 5.997 0 011.32 7.277a6.18 6.18 0 010-2.425 6.044 6.044 0 011.082-2.426A5.997 5.997 0 016 .12 6.13 6.13 0 017.203 0zm0 0"/><path d="M15.605 10.918c0 .414-.043.82-.12 1.21a6.043 6.043 0 01-2.282 3.642 5.869 5.869 0 01-2.398 1.09 5.82 5.82 0 01-1.203.12h-6v.004H0l.129-.265a3.881 3.881 0 011.43-1.578 3.796 3.796 0 011.968-.586h6.078c.418 0 .825-.075 1.2-.207a3.625 3.625 0 002.398-3.434c0-.422-.07-.832-.203-1.21a3.521 3.521 0 00-.45-.88 3.606 3.606 0 00-1.745-1.34c-.082-.03-.168-.054-.254-.078a3.431 3.431 0 00-.946-.129H7.203A1.209 1.209 0 016 6.062c0-.667.54-1.21 1.203-1.21h2.399a5.912 5.912 0 011.199.12c.89.18 1.703.563 2.402 1.09.453.344.86.754 1.2 1.215a5.997 5.997 0 011.081 2.426c.079.395.121.797.121 1.215zm0 0M22.102 10.363c.222.125.527.246.921.356.395.105.786.156 1.168.156.387 0 .668-.05.844-.156.172-.11.262-.285.262-.528a.65.65 0 00-.152-.43 1.577 1.577 0 00-.454-.343c-.199-.113-.539-.285-1.02-.516-.577-.277-1.034-.613-1.37-1.007-.336-.399-.504-.895-.504-1.497 0-.48.117-.882.351-1.214.239-.336.575-.582 1-.75.43-.168.93-.25 1.5-.25.536 0 .993.05 1.383.148.387.098.68.2.871.313l-.308 1.52c-.172-.134-.43-.255-.766-.356a3.365 3.365 0 00-1.004-.16c-.367 0-.644.062-.832.18a.577.577 0 00-.273.5c0 .16.047.3.136.425.098.121.239.242.434.36.191.113.461.25.813.413.5.227.906.453 1.218.676.317.223.555.48.723.777.168.297.254.649.254 1.06 0 .483-.113.905-.34 1.265-.227.36-.559.636-.996.836-.438.195-.961.289-1.578.289-.36 0-.711-.024-1.063-.078a6.372 6.372 0 01-.906-.196 2.458 2.458 0 01-.559-.222zm13.5 1.985h-2.243a5.233 5.233 0 01-.18-.328l-.163-.31c-.5-.952-.996-1.796-1.485-2.53l-.73.875v2.293h-1.992V4.27H30.8v3.402l2.492-3.402h2.172l-2.621 3.48c.226.324.515.773.86 1.355.347.579.769 1.301 1.273 2.165l.28.488zm3.265-8.078v8.078h-2.015V4.27zm2.926 0c.234 0 .594-.016 1.078-.043.504-.028.895-.043 1.168-.043 1.012 0 1.773.222 2.297.668.523.445.789 1.171.789 2.183 0 .637-.129 1.176-.379 1.621-.254.45-.625.785-1.113 1.016-.492.23-1.09.344-1.797.344-.316 0-.59-.004-.813-.008v2.34h-2.007V4.27zm2.043 4.296c.406 0 .727-.12.965-.37.242-.247.363-.637.363-1.173 0-.441-.11-.789-.332-1.046-.215-.254-.539-.38-.977-.38-.328 0-.605.02-.832.055v2.875c.293.028.563.04.813.04zm6.793-4.296v6.554h2.633v1.524h-4.668V4.27zm6.207 0v8.078H54.82V4.27zm0 0"/></g></svg>