<?xml version="1.0" encoding="UTF-8"?>
<svg xmlns="http://www.w3.org/2000/svg" xmlns:xlink="http://www.w3.org/1999/xlink" width="60pt" height="17pt" viewBox="0 0 60 17" version="1.1">
<g id="surface1">
<path style=" stroke:none;fill-rule:nonzero;fill:rgb(93.72549%,31.764706%,33.333333%);fill-opacity:1;" d="M 17.089844 0 L 16.957031 0.261719 C 16.675781 0.824219 16.269531 1.296875 15.785156 1.65625 C 15.695312 1.722656 15.601562 1.785156 15.503906 1.84375 C 14.933594 2.195312 14.269531 2.402344 13.574219 2.429688 L 7.324219 2.429688 C 6.898438 2.429688 6.484375 2.503906 6.101562 2.636719 C 5.0625 3 4.238281 3.824219 3.871094 4.855469 C 3.734375 5.238281 3.660156 5.644531 3.660156 6.070312 C 3.660156 6.496094 3.734375 6.90625 3.871094 7.285156 C 3.980469 7.601562 4.136719 7.898438 4.328125 8.167969 C 4.761719 8.78125 5.382812 9.253906 6.101562 9.507812 C 6.1875 9.535156 6.273438 9.5625 6.359375 9.585938 C 6.667969 9.667969 6.988281 9.714844 7.324219 9.714844 L 9.765625 9.714844 C 10.4375 9.714844 10.984375 10.257812 10.984375 10.929688 C 10.984375 11.597656 10.441406 12.140625 9.765625 12.140625 L 7.324219 12.140625 C 6.96875 12.140625 6.621094 12.113281 6.28125 12.054688 C 6.222656 12.042969 6.164062 12.035156 6.101562 12.019531 C 5.203125 11.839844 4.371094 11.460938 3.664062 10.929688 C 3.199219 10.582031 2.789062 10.175781 2.441406 9.714844 C 1.90625 9.007812 1.527344 8.183594 1.34375 7.285156 C 1.261719 6.894531 1.222656 6.488281 1.222656 6.070312 C 1.222656 5.65625 1.261719 5.25 1.34375 4.855469 C 1.527344 3.960938 1.90625 3.132812 2.441406 2.429688 C 2.789062 1.96875 3.199219 1.558594 3.664062 1.214844 C 4.371094 0.683594 5.203125 0.304688 6.101562 0.121094 C 6.496094 0.0429688 6.90625 0 7.324219 0 Z M 17.089844 0 "/>
<path style=" stroke:none;fill-rule:nonzero;fill:rgb(93.72549%,31.764706%,33.333333%);fill-opacity:1;" d="M 15.867188 10.929688 C 15.867188 11.34375 15.828125 11.75 15.746094 12.140625 C 15.5625 13.039062 15.183594 13.867188 14.648438 14.570312 C 14.300781 15.03125 13.890625 15.441406 13.429688 15.785156 C 12.71875 16.316406 11.886719 16.695312 10.988281 16.878906 C 10.59375 16.957031 10.183594 17 9.765625 17 L 0 17 L 0.132812 16.738281 C 0.414062 16.175781 0.816406 15.703125 1.304688 15.347656 C 1.394531 15.277344 1.488281 15.214844 1.582031 15.15625 C 2.175781 14.789062 2.863281 14.582031 3.585938 14.570312 L 9.765625 14.570312 C 10.195312 14.570312 10.605469 14.496094 10.988281 14.363281 C 12.027344 13.996094 12.851562 13.175781 13.222656 12.140625 C 13.355469 11.761719 13.429688 11.351562 13.429688 10.925781 C 13.429688 10.5 13.355469 10.09375 13.222656 9.710938 C 13.109375 9.398438 12.953125 9.101562 12.761719 8.832031 C 12.328125 8.21875 11.710938 7.746094 10.988281 7.492188 C 10.902344 7.460938 10.816406 7.4375 10.730469 7.414062 C 10.421875 7.328125 10.101562 7.285156 9.765625 7.285156 L 7.324219 7.285156 C 6.652344 7.285156 6.101562 6.742188 6.101562 6.070312 C 6.101562 5.402344 6.648438 4.855469 7.324219 4.855469 L 9.765625 4.855469 C 10.121094 4.855469 10.46875 4.886719 10.808594 4.945312 C 10.867188 4.957031 10.925781 4.964844 10.984375 4.976562 C 11.886719 5.160156 12.71875 5.539062 13.425781 6.070312 C 13.890625 6.414062 14.300781 6.824219 14.648438 7.285156 C 15.179688 7.988281 15.5625 8.816406 15.746094 9.710938 C 15.828125 10.105469 15.867188 10.511719 15.867188 10.929688 Z M 15.867188 10.929688 "/>
<path style=" stroke:none;fill-rule:nonzero;fill:rgb(93.72549%,31.764706%,33.333333%);fill-opacity:1;" d="M 22.476562 10.371094 C 22.703125 10.5 23.011719 10.617188 23.414062 10.726562 C 23.8125 10.835938 24.210938 10.886719 24.601562 10.886719 C 24.996094 10.886719 25.28125 10.835938 25.457031 10.726562 C 25.636719 10.617188 25.722656 10.441406 25.722656 10.203125 C 25.722656 10.035156 25.671875 9.890625 25.570312 9.773438 C 25.464844 9.652344 25.3125 9.535156 25.109375 9.425781 C 24.90625 9.3125 24.5625 9.140625 24.074219 8.910156 C 23.488281 8.636719 23.023438 8.296875 22.679688 7.902344 C 22.339844 7.503906 22.167969 7.003906 22.167969 6.402344 C 22.167969 5.925781 22.289062 5.519531 22.527344 5.1875 C 22.769531 4.855469 23.105469 4.605469 23.539062 4.4375 C 23.976562 4.273438 24.488281 4.1875 25.066406 4.1875 C 25.609375 4.1875 26.078125 4.238281 26.472656 4.335938 C 26.867188 4.433594 27.164062 4.539062 27.359375 4.652344 L 27.042969 6.171875 C 26.867188 6.035156 26.609375 5.917969 26.265625 5.8125 C 25.921875 5.707031 25.582031 5.65625 25.242188 5.65625 C 24.871094 5.65625 24.589844 5.714844 24.398438 5.835938 C 24.214844 5.957031 24.121094 6.121094 24.121094 6.335938 C 24.121094 6.492188 24.167969 6.636719 24.261719 6.757812 C 24.355469 6.882812 24.503906 7.003906 24.699219 7.121094 C 24.894531 7.234375 25.171875 7.371094 25.527344 7.535156 C 26.035156 7.761719 26.449219 7.988281 26.765625 8.210938 C 27.085938 8.433594 27.332031 8.695312 27.503906 8.992188 C 27.671875 9.285156 27.757812 9.636719 27.757812 10.046875 C 27.757812 10.535156 27.644531 10.957031 27.410156 11.316406 C 27.183594 11.675781 26.847656 11.953125 26.402344 12.152344 C 25.957031 12.347656 25.421875 12.445312 24.796875 12.445312 C 24.433594 12.445312 24.074219 12.417969 23.714844 12.363281 C 23.363281 12.3125 23.054688 12.246094 22.792969 12.167969 C 22.527344 12.089844 22.339844 12.015625 22.226562 11.945312 Z M 36.203125 12.359375 L 33.921875 12.359375 C 33.890625 12.308594 33.832031 12.199219 33.742188 12.03125 L 33.574219 11.722656 C 33.066406 10.769531 32.5625 9.925781 32.066406 9.1875 L 31.324219 10.0625 L 31.324219 12.359375 L 29.296875 12.359375 L 29.296875 4.273438 L 31.324219 4.273438 L 31.324219 7.679688 L 33.859375 4.273438 L 36.066406 4.273438 L 33.398438 7.757812 C 33.632812 8.082031 33.921875 8.53125 34.277344 9.113281 C 34.628906 9.695312 35.058594 10.417969 35.566406 11.28125 L 35.855469 11.769531 Z M 39.527344 4.273438 L 39.527344 12.359375 L 37.476562 12.359375 L 37.476562 4.273438 Z M 42.5 4.273438 C 42.742188 4.273438 43.105469 4.257812 43.597656 4.230469 C 44.109375 4.203125 44.507812 4.1875 44.789062 4.1875 C 45.8125 4.1875 46.589844 4.410156 47.121094 4.859375 C 47.65625 5.300781 47.921875 6.027344 47.921875 7.042969 C 47.921875 7.679688 47.792969 8.21875 47.539062 8.667969 C 47.28125 9.113281 46.902344 9.453125 46.40625 9.679688 C 45.90625 9.910156 45.296875 10.027344 44.578125 10.027344 C 44.253906 10.027344 43.980469 10.023438 43.75 10.015625 L 43.75 12.359375 L 41.710938 12.359375 L 41.710938 4.273438 Z M 44.578125 8.578125 C 44.992188 8.578125 45.320312 8.453125 45.5625 8.203125 C 45.808594 7.957031 45.929688 7.566406 45.929688 7.03125 C 45.929688 6.585938 45.816406 6.238281 45.59375 5.984375 C 45.375 5.730469 45.042969 5.601562 44.601562 5.601562 C 44.265625 5.601562 43.984375 5.621094 43.75 5.660156 L 43.75 8.535156 C 44.050781 8.5625 44.328125 8.578125 44.578125 8.578125 Z M 51.484375 4.273438 L 51.484375 10.835938 L 54.167969 10.835938 L 54.167969 12.359375 L 49.417969 12.359375 L 49.417969 4.273438 Z M 57.796875 4.273438 L 57.796875 12.359375 L 55.75 12.359375 L 55.75 4.273438 Z M 57.796875 4.273438 "/>
</g>
</svg>
