<?xml version="1.0" encoding="UTF-8"?>
<svg xmlns="http://www.w3.org/2000/svg" xmlns:xlink="http://www.w3.org/1999/xlink" width="60pt" height="60pt" viewBox="0 0 60 60" version="1.1">
<defs>
<linearGradient id="linear0" gradientUnits="userSpaceOnUse" x1="515.424" y1="395.147" x2="982.309" y2="1425.9" gradientTransform="matrix(0.06,0,0,0.06,0,0)">
<stop offset="0" style="stop-color:rgb(93.72549%,31.764706%,33.333333%);stop-opacity:1;"/>
<stop offset="1" style="stop-color:rgb(100%,91.372549%,73.72549%);stop-opacity:1;"/>
</linearGradient>
</defs>
<g id="surface1">
<path style=" stroke:none;fill-rule:nonzero;fill:url(#linear0);" d="M 30 0 C 46.570312 0 60 13.429688 60 30 C 60 46.570312 46.570312 60 30 60 C 13.429688 60 0 46.570312 0 30 C 0 13.429688 13.429688 0 30 0 Z M 30 0 "/>
<path style=" stroke:none;fill-rule:nonzero;fill:rgb(100%,100%,100%);fill-opacity:1;" d="M 43.867188 16.136719 L 43.652344 16.566406 C 43.195312 17.480469 42.539062 18.25 41.75 18.835938 C 41.601562 18.949219 41.453125 19.050781 41.296875 19.148438 C 40.363281 19.722656 39.292969 20.058594 38.160156 20.101562 L 28.023438 20.101562 C 27.328125 20.101562 26.660156 20.21875 26.039062 20.4375 C 24.351562 21.035156 23.015625 22.375 22.417969 24.058594 C 22.199219 24.679688 22.078125 25.347656 22.078125 26.039062 C 22.078125 26.738281 22.195312 27.402344 22.417969 28.023438 C 22.597656 28.535156 22.851562 29.023438 23.160156 29.460938 C 23.867188 30.460938 24.871094 31.230469 26.039062 31.644531 C 26.179688 31.691406 26.316406 31.734375 26.457031 31.773438 C 26.957031 31.910156 27.480469 31.980469 28.019531 31.980469 L 31.980469 31.980469 C 33.074219 31.980469 33.960938 32.867188 33.960938 33.960938 C 33.960938 35.058594 33.078125 35.945312 31.980469 35.945312 L 28.023438 35.945312 C 27.445312 35.945312 26.878906 35.894531 26.332031 35.796875 C 26.234375 35.785156 26.136719 35.765625 26.039062 35.746094 C 24.578125 35.449219 23.230469 34.828125 22.078125 33.964844 C 21.332031 33.402344 20.664062 32.734375 20.097656 31.984375 C 19.234375 30.832031 18.613281 29.484375 18.316406 28.023438 C 18.1875 27.382812 18.117188 26.71875 18.117188 26.039062 C 18.117188 25.363281 18.1875 24.699219 18.316406 24.058594 C 18.613281 22.597656 19.234375 21.25 20.097656 20.097656 C 20.660156 19.347656 21.328125 18.683594 22.078125 18.117188 C 23.230469 17.253906 24.578125 16.632812 26.039062 16.335938 C 26.679688 16.207031 27.34375 16.136719 28.023438 16.136719 Z M 43.867188 16.136719 "/>
<path style=" stroke:none;fill-rule:nonzero;fill:rgb(100%,100%,100%);fill-opacity:1;" d="M 41.886719 33.960938 C 41.886719 34.640625 41.816406 35.300781 41.6875 35.945312 C 41.390625 37.40625 40.773438 38.753906 39.90625 39.90625 C 39.34375 40.65625 38.675781 41.320312 37.925781 41.886719 C 36.773438 42.75 35.425781 43.371094 33.964844 43.667969 C 33.324219 43.796875 32.664062 43.867188 31.984375 43.867188 L 16.136719 43.867188 L 16.351562 43.4375 C 16.808594 42.527344 17.464844 41.753906 18.253906 41.167969 C 18.402344 41.058594 18.550781 40.953125 18.707031 40.859375 C 19.667969 40.261719 20.785156 39.921875 21.957031 39.902344 L 31.984375 39.902344 C 32.679688 39.902344 33.34375 39.785156 33.964844 39.566406 C 35.65625 38.96875 36.992188 37.632812 37.589844 35.941406 C 37.808594 35.324219 37.925781 34.65625 37.925781 33.960938 C 37.925781 33.265625 37.808594 32.601562 37.589844 31.980469 C 37.40625 31.464844 37.15625 30.980469 36.847656 30.542969 C 36.140625 29.542969 35.136719 28.773438 33.964844 28.359375 C 33.828125 28.308594 33.691406 28.269531 33.550781 28.230469 C 33.050781 28.09375 32.527344 28.019531 31.984375 28.019531 L 28.023438 28.019531 C 26.929688 28.019531 26.039062 27.136719 26.039062 26.039062 C 26.039062 24.945312 26.925781 24.058594 28.023438 24.058594 L 31.984375 24.058594 C 32.5625 24.058594 33.125 24.109375 33.675781 24.203125 C 33.773438 24.21875 33.867188 24.238281 33.960938 24.257812 C 35.425781 24.550781 36.773438 25.171875 37.921875 26.039062 C 38.671875 26.601562 39.339844 27.269531 39.90625 28.019531 C 40.769531 29.171875 41.390625 30.515625 41.6875 31.980469 C 41.816406 32.621094 41.886719 33.285156 41.886719 33.960938 Z M 41.886719 33.960938 "/>
</g>
</svg>
