<svg xmlns="http://www.w3.org/2000/svg" width="112" height="80" viewBox="0 0 84 60"><path d="M14.613 1.059c-1.05-1.41-3.238-1.41-4.289 0l-9.273 12.09c-1.403 1.761-.09 4.41 2.187 4.41h4.637V58.41c0 .883.7 1.59 1.574 1.59h5.95c.874 0 1.578-.707 1.578-1.59V17.56h4.722c2.278 0 3.5-2.649 2.188-4.41zm0 0M82.074 0h-49c-.785 0-1.488.707-1.488 1.5v5.91c0 .797.703 1.5 1.488 1.5h49c.79 0 1.489-.703 1.489-1.5V1.5c0-.883-.7-1.5-1.489-1.5zm0 0M70.086 17.031H33.074c-.875 0-1.574.617-1.574 1.5v5.91c0 .793.7 1.5 1.488 1.5H70c.79 0 1.488-.707 1.488-1.5v-5.91c.086-.883-.613-1.5-1.402-1.5zm0 0M58.012 34.059H33.074c-.785 0-1.488.707-1.488 1.5v5.91c0 .797.703 1.5 1.488 1.5h25.028c.785 0 1.484-.703 1.484-1.5v-5.91c0-.883-.7-1.5-1.574-1.5zm0 0M46.023 51.09H33.074c-.785 0-1.488.703-1.488 1.5v5.91c0 .793.703 1.5 1.488 1.5h13.04c.784 0 1.488-.707 1.488-1.5v-5.91c-.09-.797-.704-1.5-1.579-1.5zm0 0"/></svg>