<svg xmlns="http://www.w3.org/2000/svg" xmlns:xlink="http://www.w3.org/1999/xlink" width="100pt" height="100pt" viewBox="0 0 100 100"><defs><filter id="a" filterUnits="objectBoundingBox" x="0%" y="0%" width="100%" height="100%"><feColorMatrix in="SourceGraphic" values="0 0 0 0 1 0 0 0 0 1 0 0 0 0 1 0 0 0 1 0"/></filter><mask id="e"><path fill-opacity=".102" d="M0 0h100v100H0z" filter="url(#a)"/></mask><clipPath id="b"><path d="M0 0h100v100H0z"/></clipPath><g id="d" clip-path="url(#b)"><path d="M91.371 8.629c-.125-.04-.316-.098-.457-.14 1.148 4.175 2.383 9.355 2.453 12.62.2 9.664-5.77 18.422-14.851 21.786-4.254 1.578-7.672 5.035-9.368 9.492a22.798 22.798 0 0 1-13.16 13.16c-4.457 1.7-7.918 5.113-9.492 9.371-3.371 9.086-12.11 15.168-21.797 14.848-4.906-.102-14.11-2.86-17.68-3.989.52 1.86 1.07 3.707 1.653 5.547 3.254 1.035 13.023 4.016 18.11 4.125 9.687.32 18.425-5.761 21.796-14.851 1.574-4.254 5.04-7.672 9.496-9.368A22.792 22.792 0 0 0 71.23 58.07c1.696-4.457 5.114-7.918 9.372-9.492 9.082-3.367 15.046-12.121 14.847-21.789-.105-5.09-3.054-14.883-4.078-18.16zm0 0"/></g><mask id="g"><path fill-opacity=".102" d="M0 0h100v100H0z" filter="url(#a)"/></mask><clipPath id="c"><path d="M0 0h100v100H0z"/></clipPath><g id="f" clip-path="url(#c)"><path d="M72.727 31.816c-4.223 0-7.754-2.906-8.77-6.816-.187.73-.32 1.484-.32 2.273 0 5.012 4.078 9.09 9.09 9.09 5.011 0 9.09-4.078 9.09-9.09 0-.789-.133-1.543-.32-2.273-1.02 3.91-4.548 6.816-8.77 6.816zM50 54.543c-4.223 0-7.754-2.906-8.77-6.816-.19.73-.32 1.484-.32 2.273 0 5.012 4.078 9.09 9.09 9.09s9.09-4.078 9.09-9.09c0-.79-.133-1.543-.32-2.273-1.02 3.91-4.547 6.816-8.77 6.816zM27.273 77.27c-4.222 0-7.753-2.907-8.77-6.817-.187.73-.32 1.484-.32 2.274 0 5.011 4.079 9.09 9.09 9.09 5.012 0 9.09-4.079 9.09-9.09 0-.79-.133-1.543-.32-2.274-1.02 3.91-4.547 6.817-8.77 6.817zm0 0"/></g><linearGradient id="h" gradientUnits="userSpaceOnUse" x1="-63.661" y1="616.714" x2="-48.406" y2="609.601" gradientTransform="matrix(4.54545 0 0 -4.54545 304.711 2837.052)"><stop offset="0" stop-color="#fff" stop-opacity=".2"/><stop offset="1" stop-color="#fff" stop-opacity="0"/></linearGradient></defs><path d="M95.332 6.11a2.276 2.276 0 0 0-1.445-1.446C93.328 4.48 80.125.152 73.312.008 61.72-.293 51.2 6.922 47.16 17.82c-1.125 3.032-3.617 5.473-6.851 6.703a27.328 27.328 0 0 0-15.782 15.79c-1.234 3.23-3.675 5.726-6.707 6.851C6.926 51.2-.234 61.704.004 73.304c.144 6.821 4.523 19.989 4.71 20.548a2.282 2.282 0 0 0 1.438 1.433c.555.184 13.72 4.563 20.535 4.707.196.008.387.008.583.008 11.367 0 21.597-7.102 25.57-17.82 1.125-3.028 3.617-5.47 6.851-6.703A27.322 27.322 0 0 0 75.473 59.69c1.234-3.23 3.675-5.726 6.707-6.851 10.894-4.035 18.054-14.543 17.812-26.14-.14-6.817-4.472-20.032-4.66-20.59zm0 0" fill="#303c42"/><path d="M80.602 48.578c-4.258 1.574-7.676 5.035-9.372 9.492a22.792 22.792 0 0 1-13.156 13.16c-4.457 1.696-7.922 5.114-9.496 9.372-3.367 9.085-12.11 15.168-21.797 14.847-5.086-.11-14.855-3.09-18.11-4.125-1.034-3.254-4.015-13.023-4.124-18.113-.2-9.668 5.77-18.422 14.851-21.79 4.254-1.573 7.672-5.034 9.368-9.491a22.798 22.798 0 0 1 13.16-13.16c4.457-1.696 7.918-5.114 9.492-9.368 3.371-9.086 12.207-15.14 21.797-14.851C78.3 4.66 88.094 7.6 91.37 8.629c1.024 3.277 3.973 13.07 4.078 18.164.2 9.664-5.765 18.418-14.847 21.785zm0 0" fill="#d3df44"/><use xlink:href="#d" mask="url(#e)"/><path d="M63.637 50c0 7.531-6.106 13.637-13.637 13.637-7.531 0-13.637-6.106-13.637-13.637 0-7.531 6.106-13.637 13.637-13.637 7.531 0 13.637 6.106 13.637 13.637zm0 0" fill="#303c42"/><path d="M59.09 50a9.09 9.09 0 1 1-18.182-.002A9.09 9.09 0 0 1 59.09 50zm0 0" fill="#ffce34"/><path d="M40.91 72.727c0 7.53-6.105 13.636-13.637 13.636-7.53 0-13.636-6.105-13.636-13.636 0-7.532 6.105-13.637 13.636-13.637 7.532 0 13.637 6.105 13.637 13.637zm0 0" fill="#303c42"/><path d="M36.363 72.727c0 5.023-4.07 9.09-9.09 9.09a9.086 9.086 0 0 1-9.09-9.09 9.09 9.09 0 0 1 18.18 0zm0 0" fill="#ffce34"/><path d="M86.363 27.273c0 7.532-6.105 13.637-13.636 13.637-7.532 0-13.637-6.105-13.637-13.637 0-7.53 6.105-13.636 13.637-13.636 7.53 0 13.636 6.105 13.636 13.636zm0 0" fill="#303c42"/><path d="M81.816 27.273c0 5.02-4.066 9.09-9.09 9.09a9.09 9.09 0 1 1 9.09-9.09zm0 0" fill="#ffce34"/><use xlink:href="#f" mask="url(#g)"/><path d="M95.332 6.11a2.276 2.276 0 0 0-1.445-1.446C93.328 4.48 80.125.152 73.312.008 61.72-.293 51.2 6.922 47.16 17.82c-1.125 3.032-3.617 5.473-6.851 6.703a27.328 27.328 0 0 0-15.782 15.79c-1.234 3.23-3.675 5.726-6.707 6.851C6.926 51.2-.234 61.704.004 73.304c.144 6.821 4.523 19.989 4.71 20.548a2.282 2.282 0 0 0 1.438 1.433c.555.184 13.72 4.563 20.535 4.707.196.008.387.008.583.008 11.367 0 21.597-7.102 25.57-17.82 1.125-3.028 3.617-5.47 6.851-6.703A27.322 27.322 0 0 0 75.473 59.69c1.234-3.23 3.675-5.726 6.707-6.851 10.894-4.035 18.054-14.543 17.812-26.14-.14-6.817-4.472-20.032-4.66-20.59zm0 0" fill="url(#h)"/></svg>