<svg xmlns="http://www.w3.org/2000/svg" width="80" height="80" viewBox="0 0 60 60"><path d="M35.383 38.39c3.625-1.527 6.484-3.605 8.582-6.238 2.094-2.632 3.144-5.5 3.144-8.597 0-3.102-1.05-5.97-3.144-8.602-2.098-2.629-4.957-4.71-8.582-6.238-3.625-1.527-7.567-2.293-11.828-2.293-4.262 0-8.203.766-11.828 2.293-3.625 1.527-6.485 3.605-8.582 6.238C1.047 17.586 0 20.453 0 23.555c0 2.652.793 5.152 2.375 7.492 1.586 2.344 3.762 4.316 6.527 5.922a19.512 19.512 0 0 1-.687 1.472 8.533 8.533 0 0 1-.836 1.29c-.324.414-.574.738-.754.968-.18.235-.469.567-.871.989-.399.421-.656.703-.77.835 0-.023-.043.028-.132.153-.09.12-.141.176-.149.168-.012-.016-.058.043-.137.164-.078.125-.117.183-.117.183l-.082.168a.571.571 0 0 0-.066.2c-.012.066-.02.14-.02.218 0 .078.012.149.035.22.043.288.172.523.383.698.215.18.442.27.688.27h.101a28.52 28.52 0 0 0 2.875-.535c3.438-.895 6.535-2.32 9.301-4.285a33.4 33.4 0 0 0 5.89.535c4.262.004 8.204-.762 11.829-2.29zm0 0"/><path d="M57.582 39.629c1.582-2.332 2.375-4.832 2.375-7.512 0-2.742-.84-5.308-2.512-7.695-1.672-2.387-3.949-4.371-6.824-5.957.512 1.676.77 3.367.77 5.086 0 2.988-.746 5.824-2.243 8.5-1.496 2.676-3.636 5.039-6.425 7.094-2.586 1.87-5.532 3.308-8.832 4.312-3.301 1.004-6.746 1.508-10.336 1.508-.672 0-1.653-.043-2.946-.133 4.485 2.941 9.746 4.414 15.793 4.414 1.918 0 3.88-.176 5.887-.535 2.766 1.965 5.867 3.39 9.3 4.285.806.2 1.763.379 2.88.535.265.02.511-.058.734-.234.223-.18.371-.426.438-.734-.012-.137 0-.211.03-.22.036-.011.028-.085-.015-.218l-.066-.2-.082-.167a2.077 2.077 0 0 0-.254-.352 3.43 3.43 0 0 1-.149-.168c-.066-.074-.113-.125-.132-.148a28.493 28.493 0 0 0-.77-.836 13.91 13.91 0 0 1-.871-.988c-.18-.235-.43-.555-.754-.97a8.846 8.846 0 0 1-.836-1.288c-.234-.446-.46-.938-.683-1.473 2.765-1.605 4.937-3.574 6.523-5.906zm0 0"/></svg>