<svg xmlns="http://www.w3.org/2000/svg" width="80" height="80" viewBox="0 0 60 60">
  <path d="M60 11.395c-2.23.98-4.61 1.628-7.086 1.945a12.25 12.25 0 005.41-6.8 24.588 24.588 0 01-7.8 2.976 12.333 12.333 0 00-8.985-3.891c-6.809 0-12.293 5.527-12.293 12.305 0 .972.082 1.91.285 2.804-10.226-.5-19.273-5.402-25.355-12.867-1.059 1.84-1.684 3.95-1.684 6.219 0 4.258 2.196 8.035 5.465 10.223-1.977-.04-3.914-.614-5.559-1.516v.133c0 5.98 4.266 10.945 9.856 12.09-1 .273-2.09.402-3.223.402-.789 0-1.582-.043-2.328-.211 1.594 4.871 6.113 8.453 11.492 8.57a24.716 24.716 0 01-15.25 5.246A22.82 22.82 0 010 48.855c5.45 3.512 11.906 5.52 18.871 5.52 22.633 0 35.008-18.75 35.008-35.004 0-.543-.02-1.066-.043-1.59 2.441-1.73 4.492-3.894 6.164-6.386zm0 0"/>
</svg>
