<svg xmlns="http://www.w3.org/2000/svg" width="362pt" height="80" viewBox="0 0 362 60">
  <path d="M167.816 24.156c-5.367 0-9.175 4.211-9.175 10.672v23.707h-8.192V16.81h8.094v5.097a10.968 10.968 0 019.754-5.39h2.941v7.64zM144.79 37.672c0-12.442-8.828-21.746-20.777-21.746a21.384 21.384 0 00-15.145 6.437 21.519 21.519 0 00-6.125 15.309c0 12.433 9.567 21.836 22.043 21.836a21.735 21.735 0 0017.953-8.91l-5.945-4.368a14.474 14.474 0 01-12.008 6.067c-6.89-.031-12.726-5.106-13.734-11.942h33.758zm-33.559-3.824c1.461-6.368 6.532-10.676 12.684-10.676 6.152 0 11.215 4.308 12.586 10.676zM76.797 15.926a20.686 20.686 0 00-14.719 6.168V1.23h-8.191v57.305h8.093v-5.293a21.024 21.024 0 0014.836 6.266A21.732 21.732 0 0096.027 48.75a21.862 21.862 0 000-22.066 21.732 21.732 0 00-19.21-10.758zm-.59 36.246a14.412 14.412 0 01-13.367-8.883 14.471 14.471 0 013.101-15.777 14.383 14.383 0 0115.73-3.133 14.454 14.454 0 018.88 13.39 14.366 14.366 0 01-4.2 10.169 14.29 14.29 0 01-10.144 4.195zm-52.484-.395c7.906 0 14.047-6.078 14.047-15.187V1.23h8.484v57.305h-8.387v-5.422A20.806 20.806 0 0122.75 59.48c-12.195 0-21.582-8.914-21.582-22.43V1.23h8.64v35.41c0 9.157 5.887 15.137 13.915 15.137zm0 0" fill="#262626"/>
  <path d="M191.613 1.23h40.098v9.836h-29.266v13.965h28.45v9.504h-28.45v14.203h29.266v9.836h-40.098zm150.825 58.375c12.292 0 19.218-5.902 19.218-14.003 0-5.774-4.101-10.082-12.683-11.954l-9.075-1.859c-5.27-.984-6.925-1.965-6.925-3.934 0-2.546 2.539-4.109 7.218-4.109 5.07 0 8.829 1.367 9.813 6.067h10.633c-.578-8.852-6.926-14.696-19.797-14.696-11.125 0-18.934 4.606-18.934 13.528 0 6.164 4.297 10.18 13.567 12.136l10.144 2.352c4.004.785 5.07 1.867 5.07 3.531 0 2.645-3.019 4.305-7.906 4.305-6.14 0-9.652-1.367-11.015-6.067H321.07c1.563 8.832 8.094 14.703 21.368 14.703zm-24.458-1.07h-11.507c-7.22 0-11.223-4.504-11.223-10.191V25.82h-8.094V16.22h8.133V4.172h10.695v12.047h11.996v9.601h-11.996v19.782c0 2.25 1.559 3.332 4 3.332h7.996zm-46.109-42.297v3.817a20.719 20.719 0 00-13.469-4.918 22.175 22.175 0 00-19.597 10.98 22.289 22.289 0 000 22.508 22.167 22.167 0 0019.597 10.98 20.649 20.649 0 0013.47-4.917v3.828h10.663V16.219zM259.285 50.32a12.897 12.897 0 01-12.023-7.883 12.963 12.963 0 012.707-14.148 12.878 12.878 0 0114.078-2.863 12.935 12.935 0 017.992 11.972c.031 3.414-1.3 6.7-3.7 9.125a12.736 12.736 0 01-9.073 3.778zm0 0" fill="#5fb709"/>
</svg>
