<svg xmlns="http://www.w3.org/2000/svg" width="80" height="59pt" viewBox="0 0 60 59"><path d="M60 29.5C60 13.234 46.543 0 30 0S0 13.234 0 29.5c0 8.59 3.758 16.336 9.738 21.73l-.027.028.973.804c.062.055.129.094.195.149.516.422 1.05.82 1.598 1.207.175.125.351.25.53.375.583.395 1.184.77 1.794 1.125.133.074.265.152.402.227.668.375 1.352.726 2.05 1.05.052.024.102.043.153.067a30.171 30.171 0 009.856 2.61c.097.007.195.01.293.023A31.65 31.65 0 0030 59c.816 0 1.625-.043 2.426-.105.101-.008.199-.012.3-.024a31.65 31.65 0 002.38-.305c.066-.015.136-.027.203-.039a30.058 30.058 0 007.152-2.203c.082-.039.168-.074.25-.113a28.423 28.423 0 002.453-1.273c.59-.34 1.164-.696 1.727-1.075.203-.133.398-.277.597-.418.48-.34.95-.691 1.407-1.054.101-.082.21-.153.312-.235l.996-.82-.027-.023C56.207 45.913 60 38.136 60 29.5zm-57.816 0C2.184 14.418 14.66 2.145 30 2.145c15.34 0 27.816 12.273 27.816 27.355 0 8.129-3.625 15.434-9.367 20.45a7.588 7.588 0 00-.976-.575l-9.235-4.543a2.373 2.373 0 01-1.343-2.137v-3.172c.21-.261.437-.554.671-.878a21.768 21.768 0 002.856-5.493c1.379-.648 2.273-2 2.273-3.53V25.82c0-.93-.347-1.832-.968-2.543v-5.004c.058-.558.257-3.699-2.055-6.293C37.664 9.723 34.41 8.582 30 8.582c-4.41 0-7.664 1.14-9.672 3.398-2.312 2.59-2.113 5.735-2.055 6.29v5.007a3.858 3.858 0 00-.968 2.543v3.801c0 1.18.539 2.281 1.46 3.027.887 3.403 2.704 5.98 3.376 6.852v3.105a2.39 2.39 0 01-1.266 2.102l-8.629 4.625c-.273.148-.547.32-.82.512C5.754 44.832 2.184 37.57 2.184 29.5zm0 0"/></svg>