<svg xmlns="http://www.w3.org/2000/svg" width="80" height="80" viewBox="0 0 60 60">
  <path d="M53.57 0H6.43A6.43 6.43 0 000 6.43v47.14A6.43 6.43 0 006.43 60h47.14A6.43 6.43 0 0060 53.57V6.43A6.43 6.43 0 0053.57 0zM27.855 8.57h21.43a2.142 2.142 0 110 4.285h-21.43a2.142 2.142 0 010-4.285zm0 8.575h21.43a2.142 2.142 0 110 4.285h-21.43a2.142 2.142 0 010-4.285zM15 8.57a6.43 6.43 0 110 12.86 6.43 6.43 0 010-12.86zm40.715 45c0 1.184-.961 2.145-2.145 2.145H6.43a2.146 2.146 0 01-2.145-2.145V30h51.43zm0 0"/>
</svg>
