<svg width="97" height="75" viewBox="0 0 97 75" class="symbol symbol-publishSite"><g id="Page-1" fill="none" fill-rule="evenodd"><g id="Publish"><path id="Fill-1" fill="#8DC86F" d="M8.431 33.414l-1.988 1.619-4.876-5.986 1.99-1.619 4.874 5.986"></path><path id="Fill-2" fill="#B372D8" d="M26.733.493l3.456 2.933-8.898 10.378-3.455-2.933L26.733.493"></path><path id="Fill-3" fill="#F6C400" d="M4.413 12.808a1.96 1.96 0 1 1-3.918-.03 1.96 1.96 0 0 1 3.919.03"></path><path id="Fill-4" fill="#D3EDFF" d="M87.597 35.033v35.526c0 2.171-1.782 3.948-3.96 3.948H21.282c-2.178 0-3.96-1.777-3.96-3.948V35.033h70.276"></path><path id="Fill-5" fill="#3899EC" d="M17.321 35.033V26.15c0-2.17 1.782-3.947 3.96-3.947h62.357c2.177 0 3.959 1.776 3.959 3.947v8.882H17.32"></path><path id="Fill-6" fill="#3899EC" d="M31.82 50.329h1.01l2.242 8.882h.028l2.407-8.882h1.177l2.421 8.882h.028l2.256-8.882h.941l-2.727 10.855h-.996l-2.505-8.881h-.027l-2.49 8.881H34.56L31.82 50.33"></path><path id="Fill-7" fill="#3899EC" d="M45.357 50.329h1.011l2.242 8.882h.027l2.408-8.882h1.177l2.42 8.882h.028l2.256-8.882h.941l-2.726 10.855h-.996l-2.505-8.881h-.028l-2.49 8.881h-1.024l-2.74-10.855"></path><path id="Fill-8" fill="#3899EC" d="M58.895 50.329h1.01l2.242 8.882h.027l2.408-8.882h1.177l2.421 8.882h.028l2.256-8.882h.94l-2.726 10.855h-.996l-2.505-8.881h-.028l-2.49 8.881h-1.024l-2.74-10.855"></path><path id="Fill-9" fill="#FFF" d="M27.598 28.618c0 1.099-.897 1.99-2.005 1.99a1.997 1.997 0 0 1-2.004-1.99c0-1.098.898-1.99 2.004-1.99 1.108 0 2.005.892 2.005 1.99"></path><path id="Fill-10" fill="#FFF" d="M34.662 28.618c0 1.099-.898 1.99-2.005 1.99a1.998 1.998 0 0 1-2.005-1.99c0-1.098.898-1.99 2.005-1.99 1.107 0 2.005.892 2.005 1.99"></path><path id="Fill-11" fill="#6DD0F2" d="M91.2 46.438l-14.15-4.932c-.79-.277-1.55.48-1.273 1.269l4.948 14.107c.486 1.385 2.258 1.789 3.299.75l2.274-2.267 6.534 6.514a1 1 0 0 0 1.412 0l1.968-1.962a.992.992 0 0 0 0-1.408l-6.534-6.514 2.275-2.268c1.041-1.038.636-2.805-.753-3.29"></path></g></g></svg>