<svg xmlns="http://www.w3.org/2000/svg" width="80" height="80" viewBox="0 0 60 60">
  <path d="M30.156 44.156c.094-2.336-3.168-3.488-4.574-1.68-3.035 3.665-8.73 10.325-9.059 11.145-.867 2.5 3.2 4.094 5.778 5.059 2.804 1.05 4.8 1.476 5.98 1.273.856-.176 1.407-.617 1.676-1.332.223-.61.2-13.918.2-14.465zm0 0M28.805 1.605c-.2-.777-.739-1.277-1.617-1.5-2.594-.68-12.415 2.094-14.247 4.06-.582.597-.793 1.288-.617 2.07l12.461 20c2.543 4.07 5.746 2.847 5.535-1.704h-.004c-.164-2.996-1.359-21.937-1.511-22.926zm0 0M23.531 38.094c2.356-.727 2.18-4.18.176-4.989-5.348-2.203-12.648-5.285-13.21-5.285-2.192-.129-2.614 3.004-2.837 5.239-.2 2.027-.21 3.882-.035 5.574.164 1.785.55 3.605 2.332 3.71.773 0 13.457-4.214 13.574-4.25zm0 0M51.285 30.129c1.008-.703.856-1.75.867-2.094-.27-2.558-4.574-9.023-6.73-10.074-.82-.379-1.535-.356-2.145.074-.808.547-8.101 11.11-8.53 11.547-1.419 1.918.608 4.68 2.73 4.121l-.036.07c.852-.285 13.184-3.203 13.844-3.644zm0 0M38.3 38.965c-2.198-.79-4.277 2.023-3 3.953.364.617 7.024 11.762 7.61 12.176.563.48 1.266.547 2.074.238 2.262-.906 7.164-7.191 7.48-9.64.13-.872-.105-1.551-.714-2.036-.492-.441-13.45-4.691-13.45-4.691zm0 0"/>
</svg>
