<svg xmlns="http://www.w3.org/2000/svg" width="80" height="80" viewBox="0 0 60 60">
  <path d="M56.969 15.95a7.046 7.046 0 00-4.961-4.962c-4.403-1.203-22.02-1.203-22.02-1.203s-17.617 0-22.023 1.156c-2.363.649-4.309 2.598-4.961 5.008-1.156 4.406-1.156 13.54-1.156 13.54s0 9.179 1.156 13.534a7.06 7.06 0 004.96 4.961c4.454 1.207 22.024 1.207 22.024 1.207s17.617 0 22.02-1.16a7.058 7.058 0 004.965-4.96c1.156-4.403 1.156-13.536 1.156-13.536s.047-9.18-1.16-13.586zm-32.59 21.976V21.05l14.648 8.437zm0 0"/>
</svg>
